<svg id="Layer_1" xmlns="http://www.w3.org/2000/svg" viewBox="78.3 341.2 96.3 110.4">
    <style>
        .st0{fill:#fff}
    </style>
    <path class="st0" d="M172.7 440.6l-.5-2 .2-2-.7-.5.1-.1-1.9-.2.2 1.3.3 2 .1 2-.4 2 .2 2-.6 2 .2 2v.8l1 .2 1.1-.1.2-1.1.1-2-.1-2 .2-2 .3-2.3zm-7.5-6.9l.2-1.9-.9-1.8-.5-1.8-.2-1.9-.3-1.9-.5-1.8-.9-1.7-.1-1.9-1-1.7-.1-2-.6-1.8-1-1.6-.7-1.8-.9-1.7-1-1.6-.7-1.8-.9-1.7-.5-1.9-.8-1.8-1.4-1.4-.8-1.7-1.2-1.5-.9-1.6-1.1-1.6-1.4-1.3-1.6-1.1-1.5-1.1-1.3-1.4-1.7-.9-1.6-1-1.5-1.1-1.6-.9-1.3-1.5-1.7-.8-1.7-.8-1.7-.9-1.8-.7-1.7-.7-1.7-.9-1.6-1-1.9-.3-1.5-1.3-1.9-.2-1.7-.9-1-1.3 1.5-.3 1.8.4 1.7.8 1.9.2 1.7.8 1.7.7 1.7.9 1.6.9 1.5 1.1 1.7.8 1.8.6 1.6.9 1.6.9 1.6.9 1.1 1 1.1-.8.1-1.8-.3-1.7-.7-1.7-1.3-1.3-.9-1.9-.4-1.9.1-.1-.5-.5-1.1.6-1.2 1.2-1.5.6-.4-.2-.9-.3.3-1.6 2.2-1.2-.5-1.6-.5-1.8-.4-1.4-1.6-1-2-.7-1.3-.4v.6l-.4 1.4-1-1.1-.4-1.6-.1-.7-.2-.3.1-.1-.1-.7.8-1.6.3-1.6-.1-1.8-1.6-.7-1.8-.4-1.6-1-1.8-.5-1.6-.9-1.8-.5-1.5-.3-1.5-1.1-1.9-.3-1.4-1.3-1.9-.3-1.5-1.2-1.9-.4-1.3-1.4-1.5-1.2-1.7 1.2-1.8.8-1.4 1.5-1.7 1-1.4 1.4-1.7 1-1.4 1.4-.6 1.9-.6 1.7-.4 1.8v1.9l.1 1.9-.5 1.9.5 1.9v1.9l.1 1.9-.3 1.9-.1 1.9.6 1.8-.2 1.9v1.9l.1 1.9.4 1.8-.6.8-1.3 1.5-1.7.9-1.3 1.4-.8 1.7-.6 1.8-1 1.7-.1 1.9-.1 1.9-.6 1.9.3 1.9-.2 1.9.5 1.9.5 1.8-.2 2 .4 1.9.7 1.8.1.5.3-1.7.5-1.8.9-1.8.1-1.9.5-1.8.7-1.8.4-1.9.4-1.9.1-1.9.1-1.9.8-1.8.3-1.9.9-1.7.6-1.8.6-1.9 1.1-1.6.8-1.8 1-1.6 1.6-1.2 1-1.6 1.3-1.5 1.8-.8 1 .4-.1 1.2-1.6 1.1-1.3 1.5-1.2 1.5-1 1.7-1.3 1.5-.7 1.9-1.1 1.6-.6 1.9-.5 1.9-.6 1.8-.8 1.8-.2 1.9v1.9l-.5 1.8-.8 1.7-.2 1.9-.4 1.8-.1 1.9-1 1.7.1 1.9-.5 1.8-.5 1.3-.6 1.8v2l.1.4.1 1.9.1 1.9.5 1.8.3 1.9.8 1.7.4 1.9 1.5 1.3 1.2 1.4 1.1 1.5 1.2 1.4 1.5 1.2 1.8.6 1.5 1.2.9 1.2-1.2.2-.4.3-1.7-.8-1.8-.7-1.3-1.4-1.7-1-1.2-1.5-.9-1.7-1.5-1.3-.5-1.9-.9-1.7-.9-1.7-.5-1.8-.1 1.3-.5 1.8.2 1.9-.9 1.8v1.9l-.6 1.8.3 1.9-.1 1.9-.4 1.8.2 1.9-.3 1.9.8 1.8.8 1.7 1.3 1.3 1.8.5 1.8.4 1.8.5 1.8.5 1.9.4 1.9-.1 1.9-.1 1.9.3 1.9-.5 1.9.6 1.9-.2 1.9-.4 1.9.5h3.8l1.9-.3 1.9-.3 1.9.4 1.9-.2 1.9.2 1.9-.2 1.9-.2 1.9.3 1.2.7 14.1.5-.1-.1 1.4-1.5 1.3-1.3 1.8-.7 1.7-1.1 1.8-.2-.1-1.6v-1.9l-.4-1-1.3-1.4-1.3-1.3-1.8-.7-1.5-1-1.4-1.2-1.7-.7-1.7-.7-1.8-.4-1.7-.9h-1.9l-1.8-.3h-1.9l-1.8-.1-1.8.1-1.7.7-1.8.2-1.7.7-1.7.6-1.6.8-1.6.8-1.8.6-1.3 1.4-1.4 1.2-1.5 1.2-1.2 1.4-1.1 1.5-.6.9-1.2-1.1-.5-1.3 1.2-1.4 1-1.6 1.5-1.2 1.2-1.4 1.3-1.4 1.6-1 1.7-.7 1.5-1.1 1.8-.6 1.7-.8 1.8-.4 1.8-.5 1.9-.1 1.8-.2h-.1l-1.8-.3-1.8-.2-1.8-.2-1.8-.3-1.8.3-.9-1 .7-.9 1.9-.3 1.9.1 1.9.4 2-.4 1.9.6h2l1.8 1.1 1.9.3 1.8.7 1.9.4 1.8.7 1.5 1.3 1.8.8 1.8.8 1.3 1.5-.1.3 1.1.7 1.4 1.2 1.5 1.1.2.2v-.4l-.3-1.8-.5-1.8-.3-1.8-.3-1.8-.4-1.8-.1-1.9-.5-1.8-.7-1.7-1-1.5-1.4-1.3-1.7-.9-1.9-.3-1.8-.6-1.6-1.2-1.9-.3-1.7-.8-1.8-.5-1.7-.9-2-.5-2-.5-1.8-.8-1.8-1-2-.4-1.8-.9-1.9-.6-1.8-.9-1.6-.5-1.6-1-1.7-.9-1.5-1.2-1.4-1.2-1.3-1.4-1.2-1.5-1-1.6-.1-2-.4-1.8-.5-1.9.7-1.8.3-1.8.4-1.8.5-1.8 1.1-.8.7 1.3-.3 1.9-1 1.8v2l-.4 1.9.3 2 .5 1.9 1.4 1.5 1.1 1.5 1.2 1.6 1.6 1.1 1.6 1 1.8.7 1.6 1.2 2 .4 1.8.8 1.9.6 1.8.9 1.8.7 2 .2 1.8.8 1.9.5 1.8.7 1.9.6 1.8.7 1.7 1.2 1.9.5 1.8.8 1.7 1.1 1.7.9 1.5 1.1 1.3 1.4 1 1.7.2 1.9.6 1.8v1.9l.5 1.8.6 1.8.1 1.9.5 1.9.3 1.9-.4 1.7.5.5-.3.6.2 1 .3 1.9-.5 1.9-.8.5-2 .5-1.9.5-1.7.9 1.9-.1 1.9-.1 1.9.3 1.9-.3 1.9.3 1.9-.2 1.9-.1h.1l.3-.7.1-1.8-.1-1.8-.1-1.8-.1-1.8v-1.8l.3-1.7-.5 1.7-1 1.8-.3 2-.9.6-1.2-.8.6-1.9.6-1.9.8-1.8.8-1.8 1.7-1 1 .2.1 2 .5 1.9-.3 2-.2 2 .2 2-.4 1.9.4 2-.1.9 1.6.3h.3v-3.4l.4-2-.2-2 .5-2-.3-2-.3-1.9.1-.8.7-.8 1.1-.2.1.4.5-.8-.6-.7zm-34.6-68.4l1.1-.1.2.6-.3.5-.5.6-.8-.4-.3-.8.6-.4zm-10.1-8.4l1.1-.8.7 1.4-.1.9 1.1.2 1.5 1.2.6.5-.6.6-.8 1.3-.5.3.3.3.5 1.1-.8.3-.4.2-1.4-1-.1-.2h-.1v-.1l-.6-1.2-.7-1.6-.5-1.7.8-1.7zm-15.3 57l1.6 1.3 2 .1 1.9.9.6.8-.7 1.2-.1-.2-1.8-.2-1.7-.7-1.6-.9-1.6-.9-1.8-.6-1.4-1.2-1.2-1.4-1.2-1.4-.7-1.7-.8-1.7.9-.9 1.3.4.8 1.7.9 1.7 1.1 1.6 1.4 1.3 2.1.8zm4.6-47.2l-.2-.2-2-.1-1.5-1.3-1.3-1.5-.4-1.8.4-2.2 1.9-1.3 1.4.5-.9 1.1-.9 1.8.5 1.7 1.5 1.1 1.8.4.4 1.1-.7.7zm2.2-5.4l-.4-.2-1.1-.3-.8-2-1.6-1.4-2.1-.3-1.7.4-.6 1.6-.5 1.5-1.3.5-.9-1 .6-1.7.9-1.6 1.6-.9 1.6-1.1 1.9.1 1.4 1.3 1.4 1 1.4 1.1.4 1.7-.2 1.3zm56.4 75.1l-.8-.4.5-.4-2.2-.2.5 1.5-.5 2 .1 2 .1 2 .1 2 .1 2-.1 2-.1.8 1.2-.3h.7l-.1-.8.1-2 .6-2-.1-2-.3-2 .3-2-.1-2.2z" id="Fill"/>
    <path d="M131 366.9l.5-.6.3-.5-.2-.6-1.1.1-.5.5.3.8.7.3zm-9.5-10.8l-1.1.8-.8 1.6.5 1.7.7 1.6.6 1.2v.1h.1l.1.2 1.4 1 .4-.2.8-.3-.5-1.1-.3-.3.5-.3.8-1.3.6-.6-.6-.5-1.5-1.2-1.1-.2.1-.9-.7-1.3zm1.6 4.5l-.8.6-.1-.9.9.3zm15.4 14.6l1.3 1.3.7 1.7.3 1.7-.1 1.8-1.1.8-1.1-1-1.6-.9-1.6-.9-1.6-.9-1.8-.6-1.7-.8-1.5-1.1-1.6-.9-1.7-.9-1.7-.7-1.7-.8-1.9-.2-1.7-.8-1.8-.4-1.5.3 1 1.3 1.7.9 1.9.2 1.5 1.3 1.9.3 1.6 1 1.7.9 1.7.7 1.8.7 1.7.9 1.7.8 1.7.8 1.3 1.5 1.6.9 1.5 1.1 1.6 1 1.7.9 1.3 1.4 1.5 1.1 1.6 1.1 1.4 1.3 1.1 1.6.9 1.6 1.2 1.5.8 1.7 1.4 1.4.8 1.8.5 1.9.9 1.7.7 1.8 1 1.6.9 1.7.7 1.8 1 1.6.6 1.8.1 2 1 1.7.1 1.9.9 1.7.5 1.8.3 1.9.2 1.9.5 1.8.9 1.8-.2 1.9 1.1.8.1-.3.6-.8.3-1.9-.7-1.8-.4-1.8.1-1.9-.6-1.8-.6-1.8-.5-1.8-.5-1.8-.5-1.8-.7-1.7-.5-1.8-.8-1.7-.6-1.8-.9-1.6-.6-1.8-1.1-1.6-.5-1.8-.7-1.7-1.1-1.5-1.1-1.5-.7-1.8-1.1-1.5-.9-1.7-1.4-1.3-.8-1.8-1.4-1.3-1.7-.9-1.4-1.3-1.3-1.4-1.6-1-1.5-.9.7-.6 1-1.9.1-2.1-.6-2-.8-1.9-1.2-1.7-1.5-1.8-.8-.9-1 .5.4 1.9.9 1.9zm35.6 67.7l.5-2-.1-2-.4-2-.5-1.8-.9-.1-1.2.9.7.5-.2 2 .5 2-.3 2-.2 2 .1 2-.1 2-.2 1.1-1.1.1-1-.2v-.8l-.2-2 .6-2-.2-2 .4-2-.1-2-.3-2-.4-2-1 .1-1.1.9.8.4-.2 2.1-.3 2 .3 2 .1 2-.6 2-.1 2 .1.8h-.7l-1.2.3.1-.8.1-2-.1-2-.1-2-.1-2-.1-2 .5-2-.6-2.1-1.1.2-.7.8-.1.8.3 1.9.3 2-.5 2 .2 2-.4 2v3.4h-.3l-1.6-.3.1-.9-.4-2 .4-1.9-.2-2 .2-2 .3-2-.5-1.9-.1-2-1-.2-1.7 1-.8 1.8-.8 1.8-.6 1.9-.6 1.9 1.2.8.9-.6.3-2 1-1.8.5-1.7-.3 1.7v1.8l.1 1.8.1 1.8.1 1.8-.1 1.8-.3.7h-.1l-1.9.1-1.9.2-1.9-.3-1.9.3-1.9-.3-1.9.1-1.9.1 1.7-.9 1.9-.5 2-.5.8-.5.5-1.9-.3-1.9-.2-1 .3-.6-.5-.5.4-1.7-.3-1.9-.5-1.9-.1-1.9-.6-1.8-.5-1.8v-1.9l-.6-1.8-.2-1.9-1-1.7-1.3-1.4-1.5-1.1-1.7-.9-1.7-1.1-1.8-.8-1.9-.5-1.7-1.2-1.8-.7-1.9-.6-1.8-.7-1.9-.5-1.8-.8-2-.2-1.8-.7-1.8-.9-1.9-.6-1.8-.8-2-.4-1.6-1.2-1.8-.7-1.6-1-1.6-1.1-1.2-1.6-1.1-1.5-1.4-1.5-.5-1.9-.3-2 .4-1.9v-2l1-1.8.3-1.9-.7-1.3-1.1.8-.5 1.8-.4 1.8-.3 1.8-.7 1.8.5 1.9.4 1.8.1 2 1 1.6 1.2 1.5 1.3 1.4 1.4 1.2 1.5 1.2 1.7.9 1.6 1 1.9.7 1.8.9 1.9.6 1.8.9 2 .4 1.8 1 1.8.8 2 .5 2 .5 1.7.9 1.8.5 1.7.8 1.9.3 1.6 1.2 1.8.6 1.9.3 1.7.9 1.4 1.3 1 1.5.7 1.7.5 1.8.1 1.9.4 1.8.3 1.8.3 1.8.5 1.8.3 1.8v.4l-.2-.2-1.5-1.1-1.4-1.2-1.1-.7.1-.3-1.3-1.5-1.8-.8-1.8-.8-1.5-1.3-1.8-.7-1.9-.4-1.8-.7-1.9-.3-1.8-1.1h-2l-1.9-.6-2 .4-1.9-.4-1.9-.1-1.9.3-.7.9.9 1 1.8-.3 1.8.3 1.8.2 1.8.2 1.8.3h.1l-1.8.2-1.9.1-1.8.5-1.8.4-1.7.8-1.8.6-1.5 1.1-1.7.7-1.6 1-1.3 1.4-1.2 1.4-1.5 1.2-1 1.6-1.2 1.4.5 1.3.4.6.6-.9 1.1-1.5 1.2-1.4 1.5-1.2 1.4-1.2 1.3-1.4 1.8-.6 1.6-.8 1.6-.8 1.7-.6 1.7-.7 1.8-.2 1.7-.7 1.8-.1 1.8.1h1.9l1.8.3h1.9l1.7.9 1.8.4 1.7.7 1.7.7 1.4 1.2 1.5 1 1.8.7 1.3 1.3 1.3 1.4.4 1v1.9l.1 1.6-1.8.2-1.7 1.1-1.8.7-1.3 1.3-1.4 1.5.7.7.7.6 1.9-.5 1.9.6 1.9-.5 1.9.2 1.9.1 1.9-.1 1.9-.2h2.4l.4.5.1-.5h.9l1.9-.2 1.1.4.1.1v-.1l.7.2h1.9l1.9.1 1.9-.1 1.9-.2v.2l.3-.4.8-.8-.3-.3.4-1.6.4-2-.2-2 .1-1.5zm-73.3-32.7l-.9-1.7-.8-1.7-1.3-.4-.9.9.8 1.7.7 1.7 1.2 1.4 1.2 1.4 1.4 1.2 1.8.6 1.6.9 1.6.9 1.7.7 1.8.2.1.2.7-1.2-.6-.8-1.9-.9-2-.1-1.6-1.3-1.8-.8-1.4-1.3-1.4-1.6zm24.6 39.1l-1.9.2-1.9.2-1.9-.2-1.9.2-1.9-.4-1.9.3-1.9.3h-3.8l-1.9-.5-1.9.4-1.9.2-1.9-.6-1.9.5-1.9-.3-1.9.1-1.9.1-1.9-.4-1.8-.5-1.8-.5-1.8-.4-1.8-.5-1.3-1.3-.8-1.7-.8-1.8.3-1.9-.2-1.9.4-1.8.1-1.9-.3-1.9.6-1.8v-1.9l.9-1.8-.2-1.9.5-1.8.1-1.3.5 1.8.9 1.7.9 1.7.5 1.9 1.5 1.3.9 1.7 1.2 1.5 1.7 1 1.3 1.4 1.8.7 1.7.8.4-.3 1.2-.2-.9-1.2-1.5-1.2-1.8-.6-1.5-1.2-1.2-1.4-1.1-1.5-1.2-1.4-1.5-1.3-.4-1.9-.8-1.7-.3-1.9-.5-1.8-.1-1.9-.1-1.9-.1-.4v-2l.6-1.8.2-1.9.5-1.8-.1-1.9 1-1.7.1-1.9.4-1.8.2-1.9.8-1.7.5-1.8v-1.9l.2-1.9.8-1.8.6-1.8.5-1.9.6-1.9 1.1-1.6.7-1.9 1.3-1.5 1-1.7 1.2-1.5 1.3-1.5 1.6-1.1.1-1.2-1-.4-1.8.8-1.3 1.5-1 1.6-1.6 1.2-1 1.6-.8 1.8-1.1 1.6-.6 1.9-.6 1.8-.9 1.7-.3 1.9-.8 1.8-.1 1.9-.1 1.9-.4 1.9-.4 1.9-.7 1.8-.5 1.8-.1 1.9-.9 1.8-.5 1.8-.3 1.7-.1-.5-.7-1.8-.4-1.9.2-2-.5-1.8-.5-1.9.2-1.9-.3-1.9.6-1.9.1-1.9.1-1.9 1-1.7.6-1.8.8-1.7 1.3-1.4 1.7-.9 1.3-1.5.6-.8-.4-1.8-.1-1.9v-1.9l.2-1.9-.6-1.8.1-1.9.3-1.9-.1-1.9v-1.9l-.5-1.9.5-1.9-.1-1.9v-1.9l.4-1.8.6-1.7.6-1.9 1.4-1.4 1.7-1 1.4-1.4 1.7-1 1.4-1.5 1.8-.8 1.7-1.2 1.5 1.2 1.3 1.4 1.9.4 1.5 1.2 1.9.3 1.4 1.3 1.9.3 1.5 1.1 1.7.6 1.8.5 1.6.9 1.8.5 1.6 1 1.8.4 1.6.7.1 1.8-.3 1.6-.8 1.6.1.7-.1.1.2.3.1.7.4 1.6 1 1.1.4-1.4v-.6l1.3.4 2 .7 1.6 1 .4 1.4.5 1.8.5 1.6-2.2 1.2-.3 1.6.9.3.4.2 1.5-.6 1.2-1.2 1.5-.8-.2-1.3-.8-.5-.9-1.3.1-1.6-.6-1.5-1-1.8-1.9-1-2.1-.4-1.8-.3.1-1.6.1-1.9.1-1.9-.9-1.8-1.8-1-1.8-.5-1.9-.4-1.8-.7-1.7-.8-1.9-.4-1.6-1.2-1.8-.6-1.6-1.1-1.8-.7-2-.4-1.6-1.2-1.8-.7-1.1-1.5-.9-.3-.8-.2-1.5 1-1.6.8-1.6.9-1.7.8-1.3 1.4-1.6.9-1.3 1.3-1.3 1.2-.7 1.7-1.5 1.3-.2 1.9-.3 1.9.1 1.9-.5 1.9-.1 1.9.5 1.9.2 1.9-.3 1.9-.1 1.9.2 1.9.3 1.9-.2 1.9.5 1.8-.2 1.9.3 1.8-1.5 1.1-1.3 1.3-1.3 1.4-.8 1.7-1 1.6-1 1.6-.3 1.9v1.9l-.8 1.8v1.9l.3 1.9-.1 1.9.5 1.9.4 1.9-.1 1.9.5 1.8.1 1.9.8 1.8.8 1.7.1.1v.2l-.5 1.8.1 2-.4 1.9-.5 1.8-.3 1.9-.4 1.8v1.9l-.7 1.8-.1 1.9-.3 1.9-.1 1.9-.5 1.9-.1 2 .6 2 .1 1.9.5 1.9.4 1.9 1.4 1.4 1.2 1.6 1.9.6 1.9.5h2l2 .2 1.8.1 1.8.1 1.8.6 1.8-.4 1.8-.1 1.8.5 1.8-.2 1.9-.2 1.9.4 1.9-.3 1.9.2 1.9-.5 1.9.2 1.9-.3h1.9l1.9.5 1.9-.6 1.9.4 1.9-.6 1.2-.7-1.2-.7-.3.4zm-13.7-88.2l.4.2.3-1.2-.4-1.7-1.4-1.1-1.4-1-1.4-1.3-1.9-.1-1.6 1.1-1.6.9-.9 1.6-.6 1.7.9 1 1.3-.5.5-1.5.6-1.6 1.7-.4 2.1.3 1.6 1.4.8 2 1 .2zm-3.6-2.3l-1.4-.5-1.9 1.3-.4 2.2.4 1.8 1.3 1.5 1.5 1.3 2 .1.2.2.7-.7-.4-1.1-1.8-.4-1.5-1.1-.5-1.7.9-1.8.9-1.1z" id="Outline"/>
</svg>
