<svg xmlns="http://www.w3.org/2000/svg" viewBox="0 0 260.46 644">
    <defs>
        <style>
            .cls-1{fill:#fff}.cls-2{fill:none;stroke:#231f20;stroke-miterlimit:10;stroke-width:5px}
        </style>
    </defs>
    <title>
        TheBigCity
    </title>
    <g id="Fills">
        <path class="cls-1" d="M207.36 62.97V29.35H60.34v33.62H22.65v554.76h215.16V62.97h-30.45z"/>
        <path class="cls-1" d="M41.78 102.45h32.4v62.4h-32.4z"/>
        <path class="cls-1" d="M90.38 102.45h32.4v62.4h-32.4z"/>
        <path class="cls-1" d="M41.78 186.69h32.4v62.4h-32.4z"/>
        <path class="cls-1" d="M90.38 186.69h32.4v62.4h-32.4z"/>
        <path class="cls-1" d="M41.78 268.1h32.4v62.4h-32.4z"/>
        <path class="cls-1" d="M90.38 268.1h32.4v62.4h-32.4z"/>
        <path class="cls-1" d="M137.67 102.45h32.4v62.4h-32.4z"/>
        <path class="cls-1" d="M186.27 102.45h32.4v62.4h-32.4z"/>
        <path class="cls-1" d="M137.67 186.69h32.4v62.4h-32.4z"/>
        <path class="cls-1" d="M186.27 186.69h32.4v62.4h-32.4z"/>
        <path class="cls-1" d="M137.67 268.1h32.4v62.4h-32.4z"/>
        <path class="cls-1" d="M186.27 268.1h32.4v62.4h-32.4z"/>
        <path class="cls-1" d="M41.78 350.2h32.4v62.4h-32.4z"/>
        <path class="cls-1" d="M90.38 350.2h32.4v62.4h-32.4z"/>
        <path class="cls-1" d="M41.78 434.44h32.4v62.4h-32.4z"/>
        <path class="cls-1" d="M90.38 434.44h32.4v62.4h-32.4z"/>
        <path class="cls-1" d="M41.78 515.85h32.4v62.4h-32.4z"/>
        <path class="cls-1" d="M90.38 515.85h32.4v62.4h-32.4z"/>
        <path class="cls-1" d="M137.67 350.2h32.4v62.4h-32.4z"/>
        <path class="cls-1" d="M186.27 350.2h32.4v62.4h-32.4z"/>
        <path class="cls-1" d="M137.67 434.44h32.4v62.4h-32.4z"/>
        <path class="cls-1" d="M186.27 434.44h32.4v62.4h-32.4z"/>
        <path class="cls-1" d="M137.67 515.85h32.4v62.4h-32.4z"/>
        <path class="cls-1" d="M186.27 515.85h32.4v62.4h-32.4z"/>
    </g>
    <g id="Outlines">
        <path class="cls-2" d="M207.36 62.97V29.35H60.34v33.62H22.65v554.76h215.16V62.97h-30.45z"/>
        <path class="cls-2" d="M41.78 102.45h32.4v62.4h-32.4z"/>
        <path class="cls-2" d="M90.38 102.45h32.4v62.4h-32.4z"/>
        <path class="cls-2" d="M41.78 186.69h32.4v62.4h-32.4z"/>
        <path class="cls-2" d="M90.38 186.69h32.4v62.4h-32.4z"/>
        <path class="cls-2" d="M41.78 268.1h32.4v62.4h-32.4z"/>
        <path class="cls-2" d="M90.38 268.1h32.4v62.4h-32.4z"/>
        <path class="cls-2" d="M137.67 102.45h32.4v62.4h-32.4z"/>
        <path class="cls-2" d="M186.27 102.45h32.4v62.4h-32.4z"/>
        <path class="cls-2" d="M137.67 186.69h32.4v62.4h-32.4z"/>
        <path class="cls-2" d="M186.27 186.69h32.4v62.4h-32.4z"/>
        <path class="cls-2" d="M137.67 268.1h32.4v62.4h-32.4z"/>
        <path class="cls-2" d="M186.27 268.1h32.4v62.4h-32.4z"/>
        <path class="cls-2" d="M41.78 350.2h32.4v62.4h-32.4z"/>
        <path class="cls-2" d="M90.38 350.2h32.4v62.4h-32.4z"/>
        <path class="cls-2" d="M41.78 434.44h32.4v62.4h-32.4z"/>
        <path class="cls-2" d="M90.38 434.44h32.4v62.4h-32.4z"/>
        <path class="cls-2" d="M41.78 515.85h32.4v62.4h-32.4z"/>
        <path class="cls-2" d="M90.38 515.85h32.4v62.4h-32.4z"/>
        <path class="cls-2" d="M137.67 350.2h32.4v62.4h-32.4z"/>
        <path class="cls-2" d="M186.27 350.2h32.4v62.4h-32.4z"/>
        <path class="cls-2" d="M137.67 434.44h32.4v62.4h-32.4z"/>
        <path class="cls-2" d="M186.27 434.44h32.4v62.4h-32.4z"/>
        <path class="cls-2" d="M137.67 515.85h32.4v62.4h-32.4z"/>
        <path class="cls-2" d="M186.27 515.85h32.4v62.4h-32.4z"/>
    </g>
</svg>
