<svg id="Layer_1" xmlns="http://www.w3.org/2000/svg" viewBox="42 356.3 170 81.6">
    <style>
        .st0{fill:#fff}
    </style>
    <path class="st0" d="M103.5 415.6l.1-.8.2-.6 1-1.5.4-1.7.4-1.7-.1-1.4c-1.2 3.1-4.6 6.9-8 8.9-1.1.6-2.1 1.1-3.2 1.3l1.2.7.1.5.3 1.4.1 2v2l.4 1.9.3 1.9.8 1.9-.2 2 .6 1.9v2l-.2.4 1-.1-.1-.1-.3-1.9.2-1.9.1-1.9v-1.9l-.1-1.9-.2-1.9-.3-2.1.5-1.3 1.7-.7 1.8-.5 1.7-.8 1.6-.9.3-.1-.7-1.7-1.4-1.4zm85.1-45.8l2 .5.5.4 1.4-1-.3-2-.5-1.9v-2.2l-.3-2.2-.2-1.9-1.3 1.1-1.1 1.7-.8 1.8-.6 1.9-.4 1.3.4.9 1.2 1.6zm20 15.5l-.3-1.4-1.6-.6-1.7-1.2-1.3-1.6-1.6-1.3-1.2-1.7-1.1-1.4-1.7-.5-1.6-.7-1.6-.6-1.6-.9-1.8-.2-1.7-.6-1.5-1.4-1.8-.8-.9-1.8-.4-.8-.4-.3.1-.2-.2-.4-1-1.6-1.2-1.7-1.1-1.7v1.8l-.6 1.7-.2 1.8-.4 1.8.2 1.8.5 2.7.9 1.7.2 1.9.7 1.9v2l-1.6 1.1-1.1-1.6.2-1.6v-1.7l-.6-1.5-.3-1.7-.2-.6-.2.4-1.1 1.5-.7 1.7-1.2 1.4-1.3 1.4-1.8.5-1.8.4-1.7.7-1.9.2-2 .1-2-.3h-2l-1.9-.3-1.9-.1-1.9.6-1.9-.2-1.9.2-1.9-.7-1.9.3-1.9.3-1.9-.2-1.9-.3-1.9.5-1.9.1-1.9-.3-1.9.6-1.9-.2-1.9.3-1.9-.2-1.9.3-1.9.4-1.9.3-1.9.2-1.8.6-1.9.1-1.7 1-1.8.7-.5.1-.7-.2-.1-1.2-2.2.6-1 1.3-1.9-.3H106l-1.9.3-1.8.7-1.9.1-1.8.8-1.9.4-1.7 1-1.9.6-1.5 1.3-1.8.7-1.7 1-1.5 1.3-1.4 1.3-1.4 1.5-1.6 1.3-1.2 1.6-1.3 1.5-1.7 1.3-1.2 1.6-1.1 1.7-1.8 1-1.5 1.2-1.4 1.4-1.8.9-1.7 1.1-2 .2-2.2-.5-2.3.3-1.8.1-1.8-.5-1.8.1-1.7.7h-1.8l-1.7.7-1.5 1-1.3 1.2-1.4 1.2-.9 1.6-.4 1.8-.7 1.6-.1 1.8v1.8l1 1.6.9 1.5 1.4 1.1 1.2 1.4 1.6 1 1.9.1 1.8.1 1.8-.2 1.8-.1 1.7-.5 1.8-.5 1.6-.8 1.2-1.5 1.7-1 1.5-1.2 2-.4 1.5-1.2 1.5-1.2 1.8-.6 1.8-.5 1.6-1.1 1.8-.7 1.9-.3 1.6-1.1 1.9-.4 1.8-.8 1.9-.4 1.7-.9 1.6-1.1 1.5-1.2 1.5-1.2 1.2-1.6 1.5-1.3.9-1.8 1.4-1.5 1-1.7.4-2 1.2-1.6.5-1.9 1-1.7.6-1.9.8-1.7.6-1.8.9-1.6 1-1.5.9-1.7 1.8-.6 1.2.8-.8 1-1.4 1.3-1.2 1.4-1 1.6-.5 1.8-.6 1.8-.6 1.8h.1l1.2 1.4.7 1.7.5 1.8v3.7l.2 1.8.2 1.9-.3 1.8-.8 1.7-1.3 1.6 1.6 1.2 1 1.6.3.4h.2l-.1.2.6.9 1.2 1.4 1.2 1.4.9 1.6 1.1 1.4 1.1 1.5 1 1.6 1.4 1.3-.2.6.9-.2-.9-1.2-.8-1.7-.9-1.6-.8-1.7-1.5-1.3-.7-1.8-.7-1.8-1.1-1.6.3-1.6.3.1.3-.8 1.6-1.1 1.9-.5 1.9-.4 1.9-.6h2l2-.1h2l2-.5 1.7-1.1 1.4-1.5 1.3-1.5 1.3-1.5.7-.4 1.4-.6.1 1.8-.5.4-.2.3.7.1 1.9-.3 1.9.3 1.9-.3 1.9.3 1.9-.4 1.9-.1h3.8l1.9.1 1.9.3 1.9-.2.3.4h.3v.4l.2.2-.2.2v.3l-1.2 1.3-1.2 1.4.3 1.9.5 1.8.1 1.9-.1 1.9.2 1.9.3 1.9v1.9l.7 1.8-.1 1.9.5 1.8-.2 1.9.6 1.8v1.9l-.3.4 1-.1-.2-.2.4-1.8.1-1.8-.6-1.8.4-1.8-.3-1.8.3-1.9-.1-1.8.2-1.9-.2-1.9.1-1.9.3-.5.7-1.8 1.3-1.3 1.1-1.5 1.3-1.4.8-1.7 1.2-1.4h.5l.3-.2 1.8-.7 1.8-.1 1.8-.3 1.6-.8 1.6-.9 1.6-.8 1.4-1.2 1.3-1.2 1.3-1.3.9-1.6 1.4-1.2.9-1.6.9-1.6.7-1.7 1.3-1.3 1.2-1.3 1.2-1.4 1.7-.5 1.7-.4 1.8-.1 1.8-.1 1.8.1 1.8-.2 1.8.1 1.8.2 1.8-.2 1.8.3 1.8-.6 1.5-1 .2-.2-.2-1.2zm-9.5-5.1l-.3-.1-.7-.5-.9-1.5.8-1.3 1.5.6.3 1.7-.7 1.1zm2.9 43.7l-1.6-.6-1-.2-1-1.7-1-1.7-.7-1.9-1-1.8-.8-2-1.8-.8-1.9-.1-1.7-.8-1.8-.5-1.5-1.3-1.8-.4-1.8-.4-1.6-.9-1.6-.9-1-.8v-1.7l.2-.6-1 .9-1.7.8-1.5 1.1-1.7.7-1.7.6.3.8 1.4 1.3 1.4 1.3 1.7.8 1.7.9 1.8.7h2l1.8.5 1.9.2 1.9.2 1.9-.4h1.9l.7.5 1.5 1.4 1.4 1.5 1.4 1.5 1.4 1.6 1.3 1.6-.4 1.4-.4.5 1.1 1.9.7-.5 2-.4h2l-.2-1.1-1.2-1.2z" id="Fill"/>
    <path d="M97.6 430.4l-.8-1.9-.3-1.9-.4-1.9v-2l-.1-2-.4-1.9-1.2-.7-.7 1-.1 2 .4 1.9.1 2 .7 1.9-.1 2 .6 1.9-.1 2 .8 1.9.1 2 1 .8h.1l.6-1v-2l-.6-1.9.4-2.2zm17-3.6l-1.1-1.5-1.1-1.4-.9-1.6-1.2-1.4-1.2-1.4-.6-.9.1-.2h-.2l-.3-.4-1-1.6-1.6-1.2 1.3-1.6.8-1.7.3-1.8-.2-1.9-.2-1.8v-3.7l-.5-1.7-.7-1.7-1.2-1.4h-.1l.6-1.8.6-1.8.5-1.8 1-1.6 1.2-1.4 1.4-1.3.8-1-1.2-.8-1.8.6-.9 1.7-1 1.5-.9 1.6-.6 1.8-.8 1.7-.6 1.9-1 1.7-.5 1.9-1.2 1.6-.4 2-1 1.7-1.4 1.5-.9 1.8-1.5 1.3-1.2 1.6-1.5 1.2-1.5 1.2-1.6 1.1-1.7.9-1.9.4-1.8.8-1.9.4-1.6 1.1-1.9.3-1.8.7-1.6 1.1-1.8.5-1.8.6-1.5 1.2-1.5 1.2-2 .4-1.5 1.2-1.7 1-1.2 1.5-1.6.8-1.8.5-1.7.5-1.8.1-1.8.2-1.8-.1-1.9-.1-1.6-1-1.2-1.4-1.4-1.1-.9-1.5-1-1.6v-1.8l.1-1.8.7-1.6.4-1.8.9-1.6 1.4-1.2 1.3-1.2 1.5-1 1.7-.7h1.8l1.7-.7 1.8-.1 1.8.5 1.8-.1 2.3-.3 2.2.5 2-.2 1.7-1.1 1.8-.9 1.4-1.4 1.5-1.2 1.8-1 1.1-1.7 1.2-1.6 1.7-1.3 1.3-1.5L82 398l1.6-1.3 1.4-1.5 1.4-1.3 1.5-1.3 1.7-1 1.8-.7 1.5-1.3 1.9-.6 1.7-1 1.9-.4 1.8-.8 1.9-.1 1.8-.7 1.9-.3h1.9l1.9.3 1-1.3-.9-.8-1.9-.1-1.8.4-1.8.2-2-.3-1.7.8-1.8.5-1.7.8-1.9.2-1.7.9-1.5 1.2-1.8.7-1.8.7-1.5 1.1-1.5 1.1-1.3 1.4-1.3 1.2-1 1.4-1.4 1.1-1.3 1.2-1.4 1.1-1 1.5-1.2 1.4-1.4 1.1-.7 1.8-1.7.7-1.3 1.2-1.5.8-1.4 1.2-1.8-.1-2.2.1-2.2-.1-1.8-.2-1.9-.3-1.9.2-1.9-.1-1.8.6-1.7.7-1.7.8-1.4 1.2-1.3 1.3-1.1 1.5-.9 1.6-1 1.6-.2 1.9-.6 1.8.2 1.9.7 1.8.7 1.8.8 1.8 1.7 1 1.2 1.4 1.7.6 1.6.7 1.7.5 1.8-.1 2-.1 2-.2 1.9-.7 1.7-1 1.7-.9 1.9-.8 1.4-1.1 1.6-.9 1.3-1.3 1.8-.6 1.5-1.1 1.8-.5 1.5-1.2 1.8-.5 1.7-.8 1.7-.6 1.8-.3 1.8-.5 1.7-.9 1.7-.8 1.7-.9 1.6-1 1.6-1 1.6-1.1 1.6-1.1 1.1-1.6.9-1.7 1-1.6 1.5-1.3.7-1.9.8-1.9 1.1-1.7.7-1.5.2.3 1 1.6-.2 1.9.4 1.7v1.8l.1 1.8-.4 1.7-.4 1.7-1 1.5-.2.6-.1.8 1.4 1.4.7 1.7-.3.1-1.6.9-1.7.8-1.8.5-1.7.7-.7 1.5.2 1.9.2 1.9.1 1.9v1.9l-.1 1.9-.2 1.9.3 1.9 1.1.7v.1l.8-.9-.2-1.8.2-1.9.1-1.8-.2-1.8-.3-1.8-.1-1.8.2-1.7 1.4-.7 1.6-.6 1.4-1.1 1.7-.4.9-.6 1.1 1.4 1.2 1.5.9 1.8 1 1.7 1.3 1.5 1.3 1.4 1.2 1.5.7.7.5-.6.6-1.4-1.4-1.3-.9-1.6zm84.5-46.6l.7-1.1-.3-1.7-1.5-.6-.8 1.3.9 1.5.7.5.3.1zm12.7 3l-1.5-.8-1.9-.4-1.5-1-1.2-1.4-1.5-1-1.4-1.2-.5-1.8-1.7-.8-1.5-1.1-1.7-.7-1.8-.5-1.6-.9h-.5l.1-.1 1-2-.6-2.1-.3-2.1-.1-2-.2-2 .5-1.9.6-1.8-.2-1.3-1 .1-1.7.6-1.8.7-1.2 1.5-1.1 1.5-.6 1.8-.9 1.6-.2.9-.3-.4-1-1.5-.5-1.7-1.3-1.3-1.7-.6h-.7l-.2.7-1 1.7.1 1.9-.6 1.7.3 1.9-.5 1.8-.1 1.8-.5.6-.7 1.6-.7 1.6-.9 1.5-1.5 1-1.2 1.3-1.7.7-1.8-.1-1.8.3-2 .4-2-.5-2-.1-1.9.4-1.9-.1-1.9.2-1.9-.2-1.9-.6-1.9.3-1.9.2-1.9-.4h-1.9l-1.9.2-1.9-.2-1.9.3-1.9.2-1.9.2H133l-1.9-.2-1.9.6-1.9-.1-1.9.5h-1.9l-1.8.5h-1.9l-1.8.8-1.8.6-1.8.6-1.8.8.2 1.6.7.2.5-.1 1.8-.7 1.7-1 1.9-.1 1.8-.6 1.9-.2 1.9-.3 1.9-.4 1.9-.3 1.9.2 1.9-.3 1.9.2 1.9-.6 1.9.3 1.9-.1 1.9-.5 1.9.3 1.9.2 1.9-.3 1.9-.3 1.9.7 1.9-.2 1.9.2 1.9-.6 1.9.1 1.9.3h2l2 .3 2-.1 1.9-.2 1.7-.7 1.8-.4 1.8-.5 1.3-1.4 1.2-1.4.7-1.7 1.1-1.5.2-.4.2.6.3 1.7.6 1.5v1.7l-.2 1.6 1.1 1.6 1.6-1.1v-2l-.7-1.9-.2-1.9-.9-1.7-.5-2.7-.2-1.8.4-1.8.2-1.8.6-1.7v-1.8l1.1 1.7 1.2 1.7 1 1.6.2.4-.1.2.4.3.4.8.9 1.8 1.8.8 1.5 1.4 1.7.6 1.8.2 1.6.9 1.6.6 1.6.7 1.7.5 1.1 1.4 1.2 1.7 1.6 1.3 1.3 1.6 1.7 1.2 1.6.6.3 1.4.9 1.2-.2.2-1.5 1-1.8.6-1.8-.3-1.8.2-1.8-.2-1.8-.1-1.8.2-1.8-.1-1.8.1-1.8.1-1.7.4-1.7.5-1.2 1.4-1.2 1.3-1.3 1.3-.7 1.7-.9 1.6-.9 1.6-1.4 1.2-.9 1.6-1.3 1.3-1.3 1.2-1.4 1.2-1.6.8-1.6.9-1.6.8-1.8.3-1.8.1-1.8.7-.3.2h-.5l-1.2 1.4-.8 1.7-1.3 1.4-1.1 1.5-1.3 1.3-.7 1.8-.3.5-.1 1.9.2 1.9-.2 1.9.1 1.8-.3 1.9.3 1.8-.4 1.8.6 1.8-.1 1.8-.4 1.8 1.2.9 1-.9-.1-1.8v-1.8l.1-1.8.2-1.8.3-1.8-.2-1.8-.3-1.8-.1-1.8.6-1.8-.3-1.8.9-1.6 1.3-1.3 1.1-1.5 1-1.5 1-1.5.5-.9h1.5l1.3-.6.8.9 1.1 1.5 1.2 1.6 1.8.9 1.6 1.2 1.9.5 1.8.7 1.9.4 1.9.2 1.9.1 1.9.4 1.9-.3h1.7l1.5 1.2.9 1.8 1.2 1.5 1.6 1.2 1 1.7.9.6.5-.7.4-1.4-1.3-1.6-1.4-1.6-1.4-1.5-1.4-1.5-1.5-1.4-.7-.5h-1.9l-1.9.4-1.9-.2-1.9-.2-1.8-.5h-2l-1.8-.7-1.7-.9-1.7-.8-1.4-1.3-1.4-1.3-.3-.8 1.7-.6 1.7-.7 1.5-1.1 1.7-.8 1-.9-.2.6v1.7l1 .8 1.6.9 1.6.9 1.8.4 1.8.4 1.5 1.3 1.8.5 1.7.8 1.9.1 1.8.8.8 2 1 1.8.7 1.9 1 1.7 1 1.7 1 .2 1.6.6.8 1.3.2 1.1h-2l-2 .4-.9.7.9.9 2.3.3 2.3-.4.8-.2.9-1.8-.1-2.1-1.4-1-1.3-.9-1.5-.5-.4-2-.8-1.8-1.1-1.7-.7-1.9-1.2-1.6-.3-.8-1.9-.1-1.7-.7-1.5-1-1.8-.4-1.6-1-1.8-.4-1.6-.8-1.7-.6-1.7-.5-.1-2.2.3-2.2-.1-.1.5-.4.9-1.6 1.1-1.5 1.3-1.4.5-1.8 1.3-1.3.8-1.6 1.2-1.2 1.3-1.2 1.8-.3h1.8l1.8.3 1.8-.6 1.8.2h1.8l1.8.5 1.8-.1 1.8.2 1.8-.1 1.7-.8 1.2-1.3.9-1.5.6-1.5-.2-2zm-20.6-12.5l-.5-.4-2-.5-1.2-1.7-.4-.9.4-1.3.6-1.9.8-1.8 1.1-1.7 1.3-1.1.2 1.9.3 2.2v2.2l.5 1.9.3 2-1.4 1.1zm-34.9 61.9l.2-1.9-.5-1.8.1-1.9-.7-1.8v-1.9l-.3-1.9-.2-1.9.1-1.9-.1-1.9-.5-1.8-.3-1.9 1.2-1.4 1.2-1.3v-.3l.2-.2-.2-.2v-.4h-.3l-.3-.4-1.9.2-1.9-.3-1.9-.1h-3.8l-1.9.1-1.9.4-1.9-.3-1.9.3-1.9-.3-1.9.3-.7-.1.2-.3.5-.4-.1-1.8-1.9.5-.7.4-1.3 1.5-1.3 1.5-1.4 1.5-1.7 1.1-2 .5h-2l-2 .1h-2l-1.9.6-1.9.4-1.8.4-1.6 1.1-.3.8-.3-.1-.3 1.6 1.1 1.6.7 1.8.7 1.8 1.5 1.3.8 1.7.9 1.6.8 1.7.9 1.6.8.3.3-.2.7-1.1-1-1.6-1.1-1.5-.8-1.7-.6-1.8-1.4-1.4-.6-1.8-1.1-1.5-.6-1.4 1.1-.9 1.8-.3 1.7-.6 1.8-.1 1.8-.1 2 .4 1.9-.6 2-.4 1.8-.8 1.7-1.1 1.7-1.2.8-1 .1.2 1.9-.3 1.9.1 1.9-.2 1.9-.1 1.9.1 1.9.4 1.9-.5 1.9.6h1.9l1.9-.5 1.2.1-.9 1.2v.8l.3 1.9-.4 2 .5 1.9.4 1.9-.1 1.9.2 1.9.3 1.9.3 1.9.3 1.9.5 1.9v3.8l.5 1.9.8.9.1.2 1-1.3v-1.9l-.4-2.1z" id="Outline"/>
</svg>
