<svg xmlns="http://www.w3.org/2000/svg" viewBox="0 0 1319 1111.97">
    <defs>
        <style>
            .cls-1{fill:#fff}.cls-2{fill:none;stroke:#000;stroke-miterlimit:10;stroke-width:5px}
        </style>
    </defs>
    <title>
        TheBigCity
    </title>
    <g id="Fills">
        <path class="cls-1" d="M623.05 327.7l-.17-.17-48 27.71 49.36 28.5c-.83-30.27-1.6-43.25-1.6-43.25 0-4.3.15-8.56.41-12.79z"/>
        <path class="cls-1" d="M574.88 421.19l50.68 29.26c-.32-23.32-.71-42.48-1.1-57.89z"/>
        <path class="cls-1" d="M574.88 483.58l51.28 29.61c-.13-22-.32-41.55-.55-58.9z"/>
        <path class="cls-1" d="M626.18 516.35L574.88 546l51.45 29.71v-1.26c.01-21-.05-40.32-.15-58.1z"/>
        <path class="cls-1" d="M574.88 608.35L624 636.7c1.58-19.55 2.26-39 2.35-58z"/>
        <path class="cls-1" d="M574.88 670.74l41.52 24c3.21-17.31 5.5-34.71 7.06-52z"/>
        <path class="cls-1" d="M570.19 723.1l29.66 35.15A425.78 425.78 0 0 0 612 715.6z"/>
        <path class="cls-1" d="M548.26 771.49l22.48 50.79a354.52 354.52 0 0 0 22.38-46z"/>
        <path class="cls-1" d="M521.21 817.88l11.27 57.5a331 331 0 0 0 32-42.69z"/>
        <path class="cls-1" d="M523.54 885.1l-48.76-21.62 6.3 59.08 5.38-3.92a348.72 348.72 0 0 0 37.08-33.54z"/>
        <path class="cls-1" d="M427 900.36l1.07 56.09A408.16 408.16 0 0 0 475.34 927z"/>
        <path class="cls-1" d="M379.53 924.1l-9.16 58.45a499.06 499.06 0 0 0 52.63-23.4z"/>
        <path class="cls-1" d="M325.81 946.74l-13.49 54.48q28-7.54 52.74-16.7z"/>
        <path class="cls-1" d="M266.45 970.75l-14.44 42.16 43.73-8.57-29.29-33.59z"/>
        <path class="cls-1" d="M203.03 981.83l-18.06 40.74 44.31-4.73-26.25-36.01z"/>
        <path class="cls-1" d="M900.3 105.54l-34.89 34.89a205.06 205.06 0 0 1 48.3 15.19z"/>
        <path class="cls-1" d="M857.91 139.2L833.4 96.73l-23.73 41.11c6-.53 12.1-.81 18.25-.81a208.71 208.71 0 0 1 29.99 2.17z"/>
        <path class="cls-1" d="M145.61 998.11L128.89 1027h32l1.38-.13z"/>
        <path class="cls-1" d="M766.49 105.54l-12 44.92a205.36 205.36 0 0 1 45.42-11.53z"/>
        <path class="cls-1" d="M704.14 131.37v46.81a205.54 205.54 0 0 1 40.23-23.58z"/>
        <path class="cls-1" d="M696 184.62l-45.4-12.16 12.52 46.72A205.41 205.41 0 0 1 696 184.62z"/>
        <path class="cls-1" d="M609.52 226l25.63 44.4a202.15 202.15 0 0 1 23.07-44.4z"/>
        <path class="cls-1" d="M633.51 275l-49.82 13.35 39.19 39.19.17.17A201.07 201.07 0 0 1 633.51 275z"/>
        <path class="cls-1" d="M1149 987.93h-117l.83-343.32H814.06a51.47 51.47 0 0 1-51.32-51.32A51.47 51.47 0 0 1 814.06 542h219l.15-61.58a67.42 67.42 0 0 1-13.26 1.32H854.88c-1.43 0-2.84-.06-4.25-.15h-4.94l.28-.46c-32.79-4.36-58.3-32.37-58.3-66 0-36.64 30.25-66.62 67.22-66.62h178.31v-8c0-82-49-152.67-119.47-184.87a205.06 205.06 0 0 0-48.3-15.19q-3.73-.68-7.5-1.23a208.71 208.71 0 0 0-30-2.17c-6.15 0-12.24.28-18.25.81q-4.93.43-9.79 1.09a205.36 205.36 0 0 0-45.42 11.53q-5.1 1.94-10.08 4.13a205.54 205.54 0 0 0-40.23 23.58q-4.15 3.12-8.14 6.44a205.41 205.41 0 0 0-32.88 34.55q-2.52 3.36-4.9 6.82a202.15 202.15 0 0 0-23.07 44.4q-.85 2.29-1.64 4.6a201.07 201.07 0 0 0-10.46 52.71c-.27 4.23-.42 8.49-.42 12.79 0 0 .77 13 1.6 43.25l.23 8.81c.39 15.41.78 34.57 1.1 57.89 0 1.27 0 2.54.05 3.83.23 17.35.42 36.93.55 58.9v3.16c.1 17.79.15 37.11.15 58.06v4.26c-.09 19.07-.77 38.49-2.35 58q-.24 3-.51 6c-1.56 17.31-3.84 34.7-7.06 52q-1.94 10.47-4.35 20.89a425.78 425.78 0 0 1-12.2 42.65q-3.13 9.08-6.73 18a354.52 354.52 0 0 1-22.38 46q-3 5.24-6.29 10.41a331 331 0 0 1-32 42.69q-4.34 4.92-8.94 9.73a348.72 348.72 0 0 1-37.08 33.54q-5.44 4.32-11.1 8.43a408.16 408.16 0 0 1-47.23 29.42q-2.55 1.36-5.14 2.71a499.06 499.06 0 0 1-52.6 23.39c-1.76.67-3.53 1.32-5.31 2q-24.81 9.13-52.74 16.7c-43.8 11.82-93.57 20.58-150.08 25.7l-1.38.13q-30.78 2.75-64.24 4S482.9 1098 659.5 909v123.1h23.61a20 20 0 0 0 4.08.42h182.1a20.18 20.18 0 0 0 20.13-20.13v-4.33a20.18 20.18 0 0 0-20.13-20.13h-109.8V897.7h174.64v134.4h28.75a20 20 0 0 0 4 .42H1149a20.18 20.18 0 0 0 20.13-20.13v-4.33a20.18 20.18 0 0 0-20.13-20.13zM842.24 310.11a32.2 32.2 0 1 1 32.2-32.2 32.2 32.2 0 0 1-32.2 32.2z"/>
        <path class="cls-1" d="M1156.8 593.29a50.89 50.89 0 0 1-2 14.15v5.44l33.93-19.59-33.93-19.59v5.44a50.89 50.89 0 0 1 2 14.15z"/>
        <path class="cls-1" d="M1143.5 558.92l8.55 7.46 7.54-38.45-37.07 12.7 11.78 10.27a52 52 0 0 1 9.2 8.02z"/>
        <path class="cls-1" d="M1127.31 639.7l-7.18 6.26 37.07 12.7-7.54-38.45-1.25 1.09a51.86 51.86 0 0 1-21.1 18.4z"/>
        <path class="cls-1" d="M762.74 593.29a51.47 51.47 0 0 0 51.32 51.32h291.42a50.84 50.84 0 0 0 21.83-4.91 51.86 51.86 0 0 0 21.11-18.41 51.13 51.13 0 0 0 8.38-28 50.89 50.89 0 0 0-2-14.15 51.41 51.41 0 0 0-11.28-20.22 52 52 0 0 0-9.2-8 50.94 50.94 0 0 0-28.82-8.92H814.06a51.47 51.47 0 0 0-51.32 51.29z"/>
        <path class="cls-1" d="M867.8 386.92l22.1-36.22h-44.21l22.11 36.22z"/>
        <path class="cls-1" d="M956.23 386.92l22.1-36.22h-44.22l22.12 36.22z"/>
        <path class="cls-1" d="M1000.46 386.92l22.12-36.22h-44.25l22.13 36.22z"/>
        <path class="cls-1" d="M912.01 386.92l22.1-36.22H889.9l22.11 36.22z"/>
        <path class="cls-1" d="M956.26 445.34l-22.1 36.22h44.2l-22.1-36.22z"/>
        <path class="cls-1" d="M1000.47 445.34l-22.11 36.22h44.22l-22.11-36.22z"/>
        <path class="cls-1" d="M912.04 445.34l-22.11 36.22h44.23l-22.12-36.22z"/>
        <path class="cls-1" d="M850.63 481.56h39.3l-22.12-36.22-21.84 35.76-.28.46h4.94z"/>
        <path class="cls-1" d="M842.24 245.71a32.2 32.2 0 1 0 32.2 32.2 32.2 32.2 0 0 0-32.2-32.2zm0 40.92a8.72 8.72 0 1 1 8.72-8.72 8.72 8.72 0 0 1-8.72 8.72z"/>
        <circle class="cls-1" cx="842.24" cy="277.91" r="8.72"/>
    </g>
    <g id="Outlines">
        <path class="cls-2" d="M623.05 327.7l-.17-.17-48 27.71 49.36 28.5c-.83-30.27-1.6-43.25-1.6-43.25 0-4.3.15-8.56.41-12.79z"/>
        <path class="cls-2" d="M574.88 421.19l50.68 29.26c-.32-23.32-.71-42.48-1.1-57.89z"/>
        <path class="cls-2" d="M574.88 483.58l51.28 29.61c-.13-22-.32-41.55-.55-58.9z"/>
        <path class="cls-2" d="M626.18 516.35L574.88 546l51.45 29.71v-1.26c.01-21-.05-40.32-.15-58.1z"/>
        <path class="cls-2" d="M574.88 608.35L624 636.7c1.58-19.55 2.26-39 2.35-58z"/>
        <path class="cls-2" d="M574.88 670.74l41.52 24c3.21-17.31 5.5-34.71 7.06-52z"/>
        <path class="cls-2" d="M570.19 723.1l29.66 35.15A425.78 425.78 0 0 0 612 715.6z"/>
        <path class="cls-2" d="M548.26 771.49l22.48 50.79a354.52 354.52 0 0 0 22.38-46z"/>
        <path class="cls-2" d="M521.21 817.88l11.27 57.5a331 331 0 0 0 32-42.69z"/>
        <path class="cls-2" d="M523.54 885.1l-48.76-21.62 6.3 59.08 5.38-3.92a348.72 348.72 0 0 0 37.08-33.54z"/>
        <path class="cls-2" d="M427 900.36l1.07 56.09A408.16 408.16 0 0 0 475.34 927z"/>
        <path class="cls-2" d="M379.53 924.1l-9.16 58.45a499.06 499.06 0 0 0 52.63-23.4z"/>
        <path class="cls-2" d="M325.81 946.74l-13.49 54.48q28-7.54 52.74-16.7z"/>
        <path class="cls-2" d="M266.45 970.75l-14.44 42.16 43.73-8.57-29.29-33.59z"/>
        <path class="cls-2" d="M203.03 981.83l-18.06 40.74 44.31-4.73-26.25-36.01z"/>
        <path class="cls-2" d="M900.3 105.54l-34.89 34.89a205.06 205.06 0 0 1 48.3 15.19z"/>
        <path class="cls-2" d="M857.91 139.2L833.4 96.73l-23.73 41.11c6-.53 12.1-.81 18.25-.81a208.71 208.71 0 0 1 29.99 2.17z"/>
        <path class="cls-2" d="M145.61 998.11L128.89 1027h32l1.38-.13z"/>
        <path class="cls-2" d="M766.49 105.54l-12 44.92a205.36 205.36 0 0 1 45.42-11.53z"/>
        <path class="cls-2" d="M704.14 131.37v46.81a205.54 205.54 0 0 1 40.23-23.58z"/>
        <path class="cls-2" d="M696 184.62l-45.4-12.16 12.52 46.72A205.41 205.41 0 0 1 696 184.62z"/>
        <path class="cls-2" d="M609.52 226l25.63 44.4a202.15 202.15 0 0 1 23.07-44.4z"/>
        <path class="cls-2" d="M633.51 275l-49.82 13.35 39.19 39.19.17.17A201.07 201.07 0 0 1 633.51 275z"/>
        <path class="cls-2" d="M1149 987.93h-117l.83-343.32H814.06a51.47 51.47 0 0 1-51.32-51.32A51.47 51.47 0 0 1 814.06 542h219l.15-61.58a67.42 67.42 0 0 1-13.26 1.32H854.88c-1.43 0-2.84-.06-4.25-.15h-4.94l.28-.46c-32.79-4.36-58.3-32.37-58.3-66 0-36.64 30.25-66.62 67.22-66.62h178.31v-8c0-82-49-152.67-119.47-184.87a205.06 205.06 0 0 0-48.3-15.19q-3.73-.68-7.5-1.23a208.71 208.71 0 0 0-30-2.17c-6.15 0-12.24.28-18.25.81q-4.93.43-9.79 1.09a205.36 205.36 0 0 0-45.42 11.53q-5.1 1.94-10.08 4.13a205.54 205.54 0 0 0-40.23 23.58q-4.15 3.12-8.14 6.44a205.41 205.41 0 0 0-32.88 34.55q-2.52 3.36-4.9 6.82a202.15 202.15 0 0 0-23.07 44.4q-.85 2.29-1.64 4.6a201.07 201.07 0 0 0-10.46 52.71c-.27 4.23-.42 8.49-.42 12.79 0 0 .77 13 1.6 43.25l.23 8.81c.39 15.41.78 34.57 1.1 57.89 0 1.27 0 2.54.05 3.83.23 17.35.42 36.93.55 58.9v3.16c.1 17.79.15 37.11.15 58.06v4.26c-.09 19.07-.77 38.49-2.35 58q-.24 3-.51 6c-1.56 17.31-3.84 34.7-7.06 52q-1.94 10.47-4.35 20.89a425.78 425.78 0 0 1-12.2 42.65q-3.13 9.08-6.73 18a354.52 354.52 0 0 1-22.38 46q-3 5.24-6.29 10.41a331 331 0 0 1-32 42.69q-4.34 4.92-8.94 9.73a348.72 348.72 0 0 1-37.08 33.54q-5.44 4.32-11.1 8.43a408.16 408.16 0 0 1-47.23 29.42q-2.55 1.36-5.14 2.71a499.06 499.06 0 0 1-52.6 23.39c-1.76.67-3.53 1.32-5.31 2q-24.81 9.13-52.74 16.7c-43.8 11.82-93.57 20.58-150.08 25.7l-1.38.13q-30.78 2.75-64.24 4S482.9 1098 659.5 909v123.1h23.61a20 20 0 0 0 4.08.42h182.1a20.18 20.18 0 0 0 20.13-20.13v-4.33a20.18 20.18 0 0 0-20.13-20.13h-109.8V897.7h174.64v134.4h28.75a20 20 0 0 0 4 .42H1149a20.18 20.18 0 0 0 20.13-20.13v-4.33a20.18 20.18 0 0 0-20.13-20.13zM842.24 310.11a32.2 32.2 0 1 1 32.2-32.2 32.2 32.2 0 0 1-32.2 32.2z"/>
        <path class="cls-2" d="M1156.8 593.29a50.89 50.89 0 0 1-2 14.15v5.44l33.93-19.59-33.93-19.59v5.44a50.89 50.89 0 0 1 2 14.15z"/>
        <path class="cls-2" d="M1143.5 558.92l8.55 7.46 7.54-38.45-37.07 12.7 11.78 10.27a52 52 0 0 1 9.2 8.02z"/>
        <path class="cls-2" d="M1127.31 639.7l-7.18 6.26 37.07 12.7-7.54-38.45-1.25 1.09a51.86 51.86 0 0 1-21.1 18.4z"/>
        <path class="cls-2" d="M762.74 593.29a51.47 51.47 0 0 0 51.32 51.32h291.42a50.84 50.84 0 0 0 21.83-4.91 51.86 51.86 0 0 0 21.11-18.41 51.13 51.13 0 0 0 8.38-28 50.89 50.89 0 0 0-2-14.15 51.41 51.41 0 0 0-11.28-20.22 52 52 0 0 0-9.2-8 50.94 50.94 0 0 0-28.82-8.92H814.06a51.47 51.47 0 0 0-51.32 51.29z"/>
        <path class="cls-2" d="M867.8 386.92l22.1-36.22h-44.21l22.11 36.22z"/>
        <path class="cls-2" d="M956.23 386.92l22.1-36.22h-44.22l22.12 36.22z"/>
        <path class="cls-2" d="M1000.46 386.92l22.12-36.22h-44.25l22.13 36.22z"/>
        <path class="cls-2" d="M912.01 386.92l22.1-36.22H889.9l22.11 36.22z"/>
        <path class="cls-2" d="M956.26 445.34l-22.1 36.22h44.2l-22.1-36.22z"/>
        <path class="cls-2" d="M1000.47 445.34l-22.11 36.22h44.22l-22.11-36.22z"/>
        <path class="cls-2" d="M912.04 445.34l-22.11 36.22h44.23l-22.12-36.22z"/>
        <path class="cls-2" d="M850.63 481.56h39.3l-22.12-36.22-21.84 35.76-.28.46h4.94z"/>
        <path class="cls-2" d="M842.24 245.71a32.2 32.2 0 1 0 32.2 32.2 32.2 32.2 0 0 0-32.2-32.2zm0 40.92a8.72 8.72 0 1 1 8.72-8.72 8.72 8.72 0 0 1-8.72 8.72z"/>
        <circle class="cls-2" cx="842.24" cy="277.91" r="8.72"/>
    </g>
</svg>
