<svg id="Layer_1" xmlns="http://www.w3.org/2000/svg" viewBox="83.8 333.7 86.1 126.3">
    <style>
        .st0{fill:#fff}
    </style>
    <path class="st0" d="M167.7 422l-.4-1.7-1.4-1.2-1.1-1.4-1.7-.4-1.6-.6-1.7.3-1 .5-.3 1.9.2 1.9-.6 1.9-.1 1.9-.9 1.7-.2 1.5.9.5 1.5.8 1.7.7 1.8-.5 1.6-.6 1.6-.8.7-1.7 1.2-1.3.4-1.8-.6-1.6zm-26.8-54.9l-1.8-.4-1.3-1.3-1.9-.3-1.5-1-1.7-.7-.2-.1.2 1.2 1 1 1.8.9 1.3 1.4 1.1 1.6 1.1 1.6.3.3 1.5-.2 1.5-1.2 1.8-.7 1.5-1.1 1.3-1.5 1.2-1.5 1.5-1.3.8-1.7.9-1.7.2-1.9.1-1.9v-1.9l-.5-2-.4-2-1.3-1.6-1.2-1.7-1.3-.6-1.9.7-1.6 1.2-1.9.6-1.9.7-1.7 1.1-1.9.8-1.7 1.1-1.4.6v.2l-.1.6.8-.3h1.8l1.8-.5 1.9.2h1.8l1.8-.3h1.8l1.8-.3.8.8-.6 1.1-1.8.2-1.8.3-1.9-.3-1.8.2-1.8.7-1.9-.3-1.9-.1-1 .4.2 1.1v.4l1.3.7 1.8.4 1.8.4 1.8.3 1.8.3 1.8.5 1.9.2 1.8.6 1.1 1.2-1.3.7-.2.1-1.8-.2-1.8-.5-1.7-.8-1.8-.2-1.8-.2-1.8-.4-1.7-.8-1-.2-.2 1 1.2.5 1.7.7 1.6.9 1.4 1.2 1.7.6 1.7.6.5 1.5-1 .2-.7.1zm-54.4-14.9l1.1 1.7.7 1.8 1.2 1.6 1.6 1.2 1.6 1.1 1.4 1.4 1.7.8 1.2-1.4.8-1.7 1-1.6.5-.7-1.5.4-1.8-.1-1.8-.3-1.8.5-.1-.4-.8-.6.7-1.4 1.8.4 1.8-.1 1.8-.1 1.8-.2 1.2-.2.2-.4 1-1-1.3-.7-2-.5-2-.4-1.8-1-2-.5-1.9-.6-.4-1 1-.9 1.9.6 2 .6 1.9.6 1.9.6 1.9.9 1.7.8.2-.5.8-.8-.8-.6-1.5-1.1-1.5-1.1-1.3-1.3-1.4-1.3-1.8-.7-1.6-1-1.3-1.3-.1-1.3 1.1-.1 1.7.8 1.6 1 1.5 1.1 1.5 1.1 1.3 1.4 1.6 1 1.5 1.2.9.7.3-.4.4-1.5-.5-.7-1.4-1.2-1.2-1.3-1.1-1.4-1.1-1.4-.8-1.7-1.2-1.4-.5-.8-1.8-.3-2 .2-1.9.6-1.7 1-1.6 1.2-1.3 1.5-1.2 1.7-.7 1.9-.5 2 .1 2 .7 1.9.4 1.7zm19.6-1.7l-1.3 1.5-.9 1.8-1.4 1.3-.2.3-.8 1.6-.8 1.8-1.2 1.6-1.2 1.6-.9 1.6.7 1 .5 1.9 1.1 1.7 1.2 1.6 1 1.8 1.5 1.3 1.8.9 1.5 1.3 2 .5 2 .3 1.9.4 2 .2 2 .4 1.9-.7 2.1.4 1.8-.9 1.8-.8 2.1-.2 1.5-1.4 1.7-1 1.6-.7.1-1.4-.3-1.8v-1.8l-.2-1.8.5-1.8-.1-1.3-.1-.7h.1l-.5-1.6.5-1.8.2-1.8v-.1l-.5-1.7-.1-1.8 1.3-.7v-.1c-.3-.9-.9-1.7-1.2-2.3l-.7.5h-.2l-1.9-.1-1.7-.6-1.8-.4-1.8-.4-1.8-.4-1.8-.5-1.8-.5-1.7-.6-1.8-.4-1.8-.5-1.8-.3-1-.9c-.6.3-1.1.8-1.5 1.5l.2.3.4-.1-.1 1.5-.9 1.8-.7 1.2v.1l-.2.1-.3.1zm17.4 7.3l1.5-.6h1.4l-.3 1.5-1.1 1.2-.8-.1-.9-.3.2-1.7zm-.8 11.6l.2-2.2 1.3-.9 1.1.9-.1 1.8-.8 1.6-1.2 1.3-1.2 1.2-.3.1-.7-.8.3-1.4 1.4-1.6zm-13.7-9.5l1-1.7.4-2 .5-1.9 1.1-1.8 1.4-1.1 1.7-.3 1.6.8 2.1.5 1.5 1.6 1 1.9.3 1.6-.8 1.4-.6 1.8v3.9l.5.8-.7.7-1.5 1 .2 1.4-1.5 1.6-1.8 1.2-2.2.3-1.2-.4-1.8-.5-1.2-1.5-.8-1.6-1.1-1.7 1.1-1.4-1.1-1.8v-.7l.2-.9 1.7-1.2zm-1.1-7.3l.4 1.6-.3 1-.4.7-1.1-.6-.6-1.5.4-1.5 1.6.3zm2.1 14.7l1.1 1.3 1.4 1 1.7-.3 1.7-.4.5-.7h-.7l-.1-.1-.1.1-.3-.5-.2-.2v-.1l-.3-.5.7-2.4.9-.5.6.8-.1 1 1.4-.9-.6-1.8.2-1.9.5-1.8.8-1.8.4-1.1-1.5-1.7-1.9-1h-1.5l-1.6.3-1.2 2.3-.2 1.7-.3 1.7-1 1.4-.8 1.4 1.2 1.3.1.1.2-.7 1.5-.4.5 1.4-.9 2.2-.3.2v.2l-.2-.1-.6.5-.6-.1-.1-.8-1.7-1.2.5.7.9 1.4zm46.9 47.7l-.3-1.9-.5-1.8-.4-1.8-.2-1.9-.5-1.8-.2-1.9-.6-1.8-.3-1.9-1.2-1.6-.7-1.8-.6-1.8-.7-1.8-1.2-1.5-.4-1.9-1.2-1.5-.5-1.9-1.5-1.3-1-1.6-.8-1.7-.8-1.7-1-1.6-1-1.6-1.2-1.4-1.4-1.3-1.2-1.5-1.2-1.5-.9-1.7-1.6-1.1-1-1.1.2 1.3-.3 1.8.2 1.8-.4.3v.3l-1.6 1.1-1.5 1.3-1.7.9-1.7.9-1.9.6-2.1.4-2 .1-1.9.5-2 .1-2 .1-2-.2-1.8-.5-1.7-.8-1.8-.5-1.7-.7-1.4-1.3-1.6-.9-1.3-1.3-1.5-1.2-.7-1.4.1 1.6.2 1.9.7 1.8-.2 2 .3 1.9.3 1.9.2 1.9.4 1.9.5 1.9v1.9l.4 1.9.6 1.9.4 1.9.1 1.9.4 1.9v2l.4 1.9v.1l.3-.7.8-1.6.2-1.8.5-1.7.6-1.7.5-1.8.7-1.8.5-1.8.6-1.8.9-1.7 1.8-.2.2 1.8-1.3 1.2-.4 1.7-.2 1.8-.6 1.6-.9 1.5-.7 1.9.1 2.1-1.1 1.7-.9 1.8-.4 2-1.4 1.4-1.2 1.5-1.2 1.5-1.5 1.1-1.2 1.5-1 1.7-1.5 1.2-.9 1.7-.9 1.7-1.2 1.5-1.1 1.6-1.2 1.5.1 1.9-1.1 1.5-.1 1.8-.3 1.8-1.1 1.5v1.9l-.6 1.7-1 1.6 1.6 1.3 1 1.7.7 1.9.9 1.8.1 2 .3 2.3.9 2.1 1.4.9 1.7.5 1 .7c.7-.3 1.4-.9 1.9-1.5v-.4l-.3.3v-.2l-1.8.1-1.6-.9-1.3-1.1-.4-1.7v-1.7l.3-1.8 1.2-.2 1 1.1-.6 1.6.2 1.5 1.1 1.2 1.6-.1-.5-1.1v-1.9l-1-1.7-.4-1.8v-5.6l.1-1.8.1-1.8.3-1.9 1-1.6 1.2-1.5 1.7-.9 1.2-1.5 1.7-.9 1.8-.7 1.7-.9 1.9-.2 1-.1v-.3l1.8-.9 1.5-1.2 1.4-1.3 1.5-1.2 1.4-1.3 1.4-1.4 1.6-1.1 1.4-1.3 1.3-1.5 1.4-1.4 1.5-1.2 1.2-1.4.8-1.7v-1.9l.2-1.9-.3-1.8-.2-1.9-.1-1.9.9-1.1 1.5.7-.3 1.9.6 1.8-.3 1.9.7 1.8v1.9l-.5 1.8-.8 1.7-1.2 1.3-1.4 1.2-1.3 1.3-1.2 1.5-1.4 1.2-1.4 1.2-1.7.8-1.1 1.5-1.5 1.1-1.5 1.1-1.2 1.4-1.6.9-.2.1.6.5 1.5 1.4 1.6 1.3 1.7 1.1 1.8.9 1.6 1.2 1.5 1.4.3 1.1-1.2.1-1.8-.9-1.4-1.3-1.5-1.3-1.6-1.1-1.8-.9-1.9-.8-1.4-1.4-2 .5-2 .4-1.7 1.1-1.9.8-1.6 1.3-1.4 1.4-.8 1.9-1.2 1.7-.3 1.9.5 1.8-.1 1.8.2 1.8.3 1.8.6 1.8.2 1.8.8 1.7.2 1.8.9 1.7.2 1.9 1.1 1.5.8 1.6.5 1.8 1.8.5h1.8l1.8-.2 1.7-.6 1.6-1 1.9-.1 1-.4 1.5-1 1-1.5.7-1.5.2-1.7-.9-.2-1.8.5-1.8-.7-1.8.4-1.3-1.1 1.3-.7 1.8-.6h1.8l1.8.4 1.8-.2 1.8.1 1.8.2 1.8-.3h1.8l1.8-.1 1.8.1h1.8l1.9.1 1.8-.7 1.8-.6 1.6-.9 1.6-.9 1.7-.8 1.7-.9 1.3-1.3 1.3-1.4 1.5-1.2.9-1.6 1.1-1.5.7-1.7.9-1.6 1.2-1.4.9-1.6.3-1.9 1.1-1.6.5-1.8.3-1.9.3-1.9.1-1.9-.1-1.9.9-1.7z" id="Fill"/>
    <path d="M121.9 373l1.2-1.2 1.2-1.3.8-1.6.1-1.8-1.1-.9-1.3.9-.2 2.2-1.5 1.6-.3 1.4.7.8.4-.1zm-.3-15.5l-.3-1.6-1-1.9-1.5-1.6-2.1-.5-1.6-.8-1.7.3-1.4 1.1-1.1 1.8-.5 1.9-.4 2-1 1.7-1.4 1.2-.2.9v.7l1.1 1.8-1.1 1.4 1.1 1.7.8 1.6 1.2 1.5 1.8.5 1.2.4 2.2-.3 1.8-1.2 1.5-1.6-.2-1.4 1.5-1 .7-.7-.5-.8v-3.9l.6-1.8.5-1.4zm-2.4 0l-.8 1.8-.5 1.8-.2 1.9.6 1.8-1.4.9.1-1-.6-.8-.9.5-.7 2.4.3.5v.1l.2.2.3.5.1-.1.1.1h.7l-.5.7-1.7.4-1.7.3-1.4-1-1.1-1.3-.8-1.6-.5-.7 1.7 1.2.1.8.6.1.6-.5.2.1v-.2l.3-.2.9-2.2-.5-1.4-1.5.4-.2.7-.1-.1-1.2-1.3.8-1.4 1-1.4.3-1.7.2-1.7 1.2-2.3 1.6-.3h1.5l1.9 1 1.5 1.7-.5 1.3zm-7.5-12.5l1.8.5 1.8.4 1.7.6 1.8.5 1.8.5 1.8.4 1.8.4 1.8.4 1.7.6 1.9.1h.2l1-.7-.8-1.2-1.8-.5-1.8-.4-1.9-.2-1.7-.6-1.8-.3-1.7-.8-1.8-.2-1.9-.1-1.8-.4-1.7-.7-1.9-.1-1.5.4 1.1 1.1 1.9.3zm14.7 12.2H125l-1.5.6-.1 1.6.9.3.8.1 1.1-1.2.2-1.4zm43.5 64.3l-.6-1.9-1.4-1.4-1.2-1.4-1.6-1-1.8-.6-1.9-.6-1.9.4-.8.4-.1-1.6-.2-1.9-.1-1.9-.9-1.8-.4-1.9v-2l-1-1.7-.6-1.8-.7-1.8-.4-1.9-.9-1.7-.4-1.9-.9-1.7-.5-1.9-1.2-1.5-1.1-1.6-.9-1.7-.7-1.8-.9-1.7-1.2-1.5-.9-1.7-1.2-1.5-.8-1.7-1.1-1.6-.8-.8.7-.2 1.7-1 1.7-1 1.5-1.2 1.8-.9 1.3-1.5 1.2-1.5.8-1.8 1.2-1.6.5-1.9.5-1.9.3-2-.5-2-.6-1.7-.2-1.9-1-1.6-.8-1.7-1.3-1.3-1.6-.8-1.6-1.1-1.1.8-1.3.5-1.7 1-1.7 1.1-1.9.6-1.6 1.2-1.9.6-1.8.9-1 .4-.7-.7v.3l-1.3.7.1 1.8.5 1.7v.1l-.2 1.8-.5 1.8.5 1.6h-.1l.1.7.1 1.3-.5 1.8.2 1.8v1.8l.3 1.8-.1 1.4-1.6.7-1.7 1-1.5 1.4-2.1.2-1.8.8-1.8.9-2.1-.4-1.9.7-2-.4-2-.2-1.9-.4-2-.3-2-.5-1.5-1.3-1.8-.9-1.5-1.3-1-1.8-1.2-1.6-1.1-1.7-.5-1.9-.7-1 .9-1.6 1.2-1.6 1.2-1.6.8-1.8.8-1.6.2-.3 1.4-1.3.9-1.8 1.3-1.5.2-.3.2-.1v-.1l.7-1.2.9-1.8.1-1.5-.4.1-.6-1-1.2-1.4-1.2-1.3-.8-1.6-1.4-1.2-.8-1.6-1.1-1.4-.9-1.6h-.7l-.2-.2-1.9.2-1.9-.1-1.8.5-1.7.7-1.8.6-1.5 1.1-1.3 1.4-.9 1.7-.6 1.8-.7 1.7-.5 1.9v1.9l-.2 2 .7 1.9.6 1.8 1 1.6.9 1.7.9 1.7 1.4 1.4 1.7 1 1.3 1.5 1.8.7 1.3.7-.1 1.5.2 1.9.7 1.8.6 1.8-.3 2 .3 1.9.3 1.9.3 1.9.4 1.9.4 1.9.2 1.9.4 1.9.2 1.9.3 1.9.7 1.8.1 1.9.2 1.9.4 1.9.2 1.9.1 1.9.7 1.8.2 1.9.3.2v.1l-1.4 1.2-1.4 1.2-.9 1.6-1.3 1.3-1 1.5-1.2 1.3-1.1 1.5-1 1.5-1.4 1.2-.7 1.8-1 1.5-.7 1.6-.5 1.7-.9 1.6-.3 1.8-.2 1.8-.6 1.7-.5 1.7-.8 1.6-.7 1.7-.5.9.7.8 1.7.7 1 1.5.9 1.5.3 1.7.3 1.7-.2 2.1.4 2.1 1.4 1.6.9 1.4 1.6.6 1.6.3.4-.2 1-1.2-1.1-.8-1.7-.5-1.4-.9-.9-2.1-.3-2.3-.1-2-.9-1.8-.7-1.9-1-1.7-1.6-1.3 1-1.6.6-1.7v-1.9l1.1-1.5.3-1.8.1-1.8 1.1-1.5-.1-1.9 1.2-1.5 1.1-1.6 1.2-1.5.9-1.7.9-1.7 1.5-1.2 1-1.7 1.2-1.5 1.5-1.1 1.2-1.5 1.2-1.5 1.4-1.4.4-2 .9-1.8 1.1-1.7-.1-2.1.7-1.9.9-1.5.6-1.6.2-1.8.4-1.7 1.3-1.2-.2-1.8-1.8.2-.9 1.7-.6 1.8-.5 1.8-.7 1.8-.5 1.8-.6 1.7-.5 1.7-.2 1.8-.8 1.6-.3.7v-.1l-.4-1.9v-2l-.4-1.9-.1-1.9-.4-1.9-.6-1.9-.4-1.9V386l-.5-1.9-.4-1.9-.2-1.9-.3-1.9-.3-1.9.2-2-.7-1.8-.2-1.9-.1-1.6.7 1.4 1.5 1.2 1.3 1.3 1.6.9 1.4 1.3 1.7.7 1.8.5 1.7.8 1.8.5 2 .2 2-.1 2-.1 1.9-.5 2-.1 1.9-.5 1.9-.6 1.7-.9 1.7-.9 1.5-1.3 1.6-1.1v-.3l.4-.3-.2-1.8.3-1.8-.2-1.3 1 1.1 1.6 1.1.9 1.7 1.2 1.5 1.2 1.5 1.4 1.3 1.2 1.4 1 1.6 1 1.6.8 1.7.8 1.7 1 1.6 1.5 1.3.5 1.9 1.2 1.5.4 1.9 1.2 1.5.7 1.8.6 1.8.7 1.8 1.2 1.6.3 1.9.6 1.8.2 1.9.5 1.8.2 1.9.4 1.8.5 1.8.3 1.9-.2 1.9.1 1.9-.1 1.9-.3 1.9-.3 1.9-.5 1.8-1.1 1.6-.3 1.9-.9 1.6-1.2 1.4-.9 1.6-.7 1.7-1.1 1.5-.9 1.6-1.5 1.2-1.3 1.4-1.3 1.3-1.7.9-1.7.8-1.6.9-1.6.9-1.8.6-1.8.7-1.9-.1h-1.8l-1.8-.1-1.8.1h-1.8l-1.8.3-1.8-.2-1.8-.1-1.8.2-1.8-.4h-1.8l-1.8.6-1.3.7 1.3 1.1 1.8-.4 1.8.7 1.8-.5.9.2-.2 1.7-.7 1.5-1 1.5-1.5 1-1 .4-1.9.1-1.6 1-1.7.6-1.8.2h-1.8l-1.8-.5-.5-1.8-.8-1.6-1.1-1.5-.2-1.9-.9-1.7-.2-1.8-.8-1.7-.2-1.8-.6-1.8-.3-1.8-.2-1.8.1-1.8-.5-1.8.3-1.9 1.2-1.7.8-1.9 1.4-1.4 1.6-1.3 1.9-.8 1.7-1.1 2-.4 2-.5 1.4 1.4 1.9.8 1.8.9 1.6 1.1 1.5 1.3 1.6 1.2 1.8.9 1.2-.1-.3-1.1-1.5-1.4-1.6-1.2-1.8-.9-1.7-1.1-1.6-1.3-1.5-1.4-.6-.5.2-.1 1.6-.9 1.2-1.4 1.5-1.1 1.5-1.1 1.1-1.5 1.7-.8 1.4-1.2 1.4-1.2 1.2-1.5 1.3-1.3 1.4-1.2 1.2-1.3.8-1.7.5-1.8v-1.9l-.7-1.8.3-1.9-.6-1.8.3-1.9-1.5-.7-.9 1.1.1 1.9.2 1.9.8 1.9-.2 1.9v1.9l-.8 1.7-1.2 1.4-2.5 2-1.4 1.4-1.3 1.5-1.4 1.3-1.6 1.1-1.4 1.4-1.4 1.3-1.5 1.2-1.4 1.3-1.5 1.2-1.8.9v.3l-1 .1-1.9.2-1.7.9-1.8.7-1.7.9-1.2 1.5-1.7.9-1.2 1.5-1 1.6-.3 1.9-.1 1.8-.1 1.8v5.6l.4 1.8 1 1.7v1.9l.5 1.1-1.6.1-1.1-1.2-.2-1.5.6-1.6-1-1.1-1.2.2-.3 1.8v1.7l.4 1.7 1.3 1.1 1.6.9 1.8-.1v.2l.3-.3v.6l1 1.6.5 1.8.6 1.8.8 1.7 1.5 1.2 1.4 1.2 2 .2 1.9.2 1.8-.7 1.7-.7h2l1.5-1.3 1.1.1 1.6-.8 1.2-1.2.9-1.4 1-1.4.8-2-.4-.6h.2l1.8.1 1.8-.3 1.8-.3 1.8.4 1.8-.3 1.8-.1.2.4 1.9-.2 1.9-.1 1.7-.8 1.6-.9 1.8-.5 1.7-.8 1.4-1.2 1.2-1.5 1.4-1.2 1.3-1.3 1.7-1.1.9-1.7 1-1.6 1.2-1.5 1-1.6.6-1.8 1.3-1.5.1-.3 1.5 1.1 1.8.4 1.8.3 1.9-.2 1.7-.3 1.5-1 1-1.5 1.2-1.2 1-1.4.5-1.7.1-1.7v-1.6zm-74-59.8l-1.7-.8-1.4-1.4-1.6-1.1-1.6-1.2-1.2-1.6-.7-1.8-1.1-1.7.1-2-.7-1.9-.1-2 .5-2 .7-1.9 1.2-1.7 1.3-1.5 1.6-1.2 1.7-1 1.9-.6 2-.2 1.8.3.5.8 1.2 1.4.8 1.7 1.1 1.4 1.1 1.4 1.2 1.3 1.4 1.2.5.7-.4 1.5-.3.4-.9-.7-1.5-1.2-1.6-1-1.3-1.4-1.5-1.1-1.5-1.1-1.6-1-1.7-.8-1.1.1.1 1.3 1.3 1.3 1.6 1 1.8.7 1.4 1.3 1.3 1.3 1.5 1.1 1.5 1.1.8.6-.8.8-.2.5-1.7-.8-1.9-.9-1.9-.6-1.9-.6-2-.6-1.9-.6-1 .9.4 1 1.9.6 2 .5 1.8 1 2 .4 2 .5 1.3.7-1 1-.2.4-1.2.2-1.8.2-1.8.1-1.8.1-1.8-.4-.7 1.4.8.6.1.4 1.8-.5 1.8.3 1.8.1 1.5-.4-.9 1-1 1.6-.8 1.7-1.3 1.4zm43.2 9.5l-.3-.3-1.1-1.6-1.1-1.6-1.3-1.4-1.8-.9-1-1-.2-1.2.2.1 1.7.7 1.5 1 1.9.3 1.3 1.3 1.8.4h.4l1-.2-.5-1.5-1.7-.6-1.7-.6-1.4-1.2-1.6-.9-1.7-.7-1.2-.5.2-1 1 .2 1.7.8 1.8.4 1.8.2 1.8.2 1.7.8 1.8.5 1.8.2.2-.1 1.3-.7-1.1-1.2-1.8-.6-1.9-.2-1.8-.5-1.8-.3-1.8-.3-1.8-.4-1.8-.4-1.3-.7v-.4l-.2-1.1 1-.4 1.9.1 1.9.3 1.8-.7 1.8-.2 1.9.3 1.8-.3 1.8-.2.6-1.1-.8-.8-1.8.3h-1.8l-1.8.3h-1.8l-1.9-.2-1.8.5h-1.8l-.8.3.1-.6v-.2l1.4-.6 1.7-1.1 1.9-.8 1.7-1.1 1.9-.7 1.9-.6 1.6-1.2 1.9-.7 1.3.6 1.2 1.7 1.3 1.6.4 2 .5 2v1.9l-.1 1.9-.2 1.9-.9 1.7-.8 1.7-1.5 1.3-1.2 1.5-1.3 1.5-1.5 1.1-1.8.7-1.5 1.2-1.2.1zm28.7 54.3l-1.2 1.3-.7 1.7-1.6.8-1.6.6-1.8.5-1.7-.7-1.5-.8-.9-.5.2-1.5.9-1.7.1-1.9.6-1.9-.2-1.9.3-1.9 1-.5 1.7-.3 1.6.6 1.7.4 1.1 1.4 1.4 1.2.4 1.7.5 1.7-.3 1.7zm-61.5-73.1l-.4 1.5.6 1.5 1.1.6.4-.7.3-1-.4-1.6-1.6-.3z" id="Outline"/>
</svg>
