<svg id="Layer_1" xmlns="http://www.w3.org/2000/svg" viewBox="0 0 1000 1000">
    <style>
        .st0{fill:#fff}
    </style>
    <path d="M710.4 519.4c2-.7 3.8-1.1 5.3-1.8 7.3-3.5 14-7.8 19.1-14.3 3.3-4.2 6.8-8.4 10.2-12.5 2-2.4 4.2-4.8 6.2-7.2 1.1-1.3 2.1-2.6 3.3-4.1-2.9-4.3-2.8-9.2-3.2-14-.2-2.7-1.6-5.4-2.7-7.9-2-4.3-3.7-8.7-4.9-13.3-.5-1.8-1.1-3.6-1.8-5.4-.5-1.4-.8-2.7.5-3.7 1.7-1.3 3.5-2.7 5.7-1.8 4 1.6 8 3.3 11.8 5.3 2.3 1.2 4.2 3 6.6 4.7 2.1-2.7 4.1-5.3 6.3-7.9 2.6-3.1 5.3-6 7.9-9 1-1.2 1.8-2.6 2.9-3.7 1.3-1.3 2.8-2.8 4.4-3.3 3.3-.9 5.8 1.7 5.4 5.5-.4 3.1-1 6.2-1.5 9.3-.6 3.8-1.2 7.7-1.9 12 1.5-.1 2.7 0 3.9-.2 3.9-.5 7.7-1.1 11.6-1.7.9-.1 1.8-.5 2.7-.7.7-.2 1.4-.5 2.1-.6 2.3-.4 4.1.5 5.1 2.4.7 1.4.2 3.9-1.2 5.2-5.2 5.1-9.9 10.7-14 16.7-.6.9-1.6 1.6-2.6 2.7.5.9 1 1.9 1.6 2.8 2.5 4.3 5.2 8.4 7.6 12.8 1.9 3.5.5 5.9-3.5 5.9-6.2 0-12.4-.2-18.7-.3-.7 0-1.4-.4-2.1-.4-.8-.1-1.8-.4-2.4-.1-3.2 1.7-6 1.6-8.7-1.8-.7 4.3-4.1 6.2-6.1 9.2-4 5.8-8.1 11.5-12.2 17.3-4.6 6.5-11 11.3-17 16.4-7.4 6.4-16.1 10.4-25.1 13.8-2.8 1.1-2.8 1.1-2.8 4.1.2 10.9.5 21.7.7 32.6.1 6.8-.6 13.5-1.2 20.2-.7 6.9-1.6 13.8-2.9 20.6-1.2 6.5-4 12.4-7.7 17.9-5.9 8.8-13.7 15.7-22.7 21.1-.3.2-.5.3-.8.5-4.7 3.1-4.7 3.1-4.8 8.9-.2 7.2-.5 14.3-.6 21.5 0 4.8.3 9.7.5 14.5.1 3.5.1 7 .2 10.4.1 2.5.2 2.6 2.8 2.8 3.6.3 7.2.4 10.7.9 5.5.6 11.1 1.4 16.6 2.2 1.3.2 2.3.2 3.5-.7 1-.7 2.8-.8 4.2-.6 4.3.7 8.5 1.6 12.7 2.6 5.9 1.4 11.7 2.6 17.8 3.1 1.2.1 2.5.4 3.7.9 1.3.5 2.9 1 2.6 2.7-.2 1.3-1.1 2.7-1.9 3.8-.4.6-1.5.9-2.3 1l-20.4 4.2c-.7.1-1.4.3-2.5.6.8 1.1 1.3 2 1.9 2.8 2.9 3.7 5.9 7.5 8.8 11.2 1.6 2 1.7 3.7.5 5.1-1.5 1.8-4.7 2.4-6.3.9-5.4-5.3-12.6-6.6-19.2-9.4-1.6-.7-3.5-1.2-4.8-2.3-1.4-1.2-2.5-1-4-.6-4.2 1.1-8.4 2.2-12.6 2.8-6.5 1.1-12.8-.8-19-2.5-.7-.2-1.4-.4-2-.6-.3.2-.6.2-.6.4-1 3.6-3.4 4.8-7.1 4.9-4 .1-8 .8-11.9 1.5-4.7.8-9.3 1.8-14 2.8-.3.1-.6.1-.9.2-2.3.2-3.3-.2-4-1.8-.7-1.6-.3-4.2.8-5.3 4.4-4.4 8.7-8.8 13-13.3 1.5-1.6 2.9-3.4 4.5-4.9 1.1-1 2.5-1.5 4.5-2.6-.5-17.6-1-35.8-1.5-54.5-1.1 0-2.1-.2-2.9 0-8.1 1.9-16.2 3.8-24.3 5.6-1.8.4-3.7.6-5.6.9-4.9.8-9.8 1.6-14.7 2.3-8.1 1.2-16.3 2.2-24.4 3.3-8 1.1-15.9 1.6-24 1.6-5.9 0-11.8.4-17.7.6h-3.2c-2.8-.1-5.7-.2-8.5-.2-12 .1-24.1.1-36-1.7-6.8-1-13.6-1.9-20.8-3-.2 2.3-.6 4.6-.5 6.9.3 10 .8 20 1.3 30.1.1 2.7.3 5.5.2 8.2 0 1.3.6 2 1.5 2.9 5.2 4.3 11.2 7.1 17 10.3.6.3 1.1.6 1.7.9 2.3 1.5 2.6 2.3 1.7 4.7-.8 2.3-2.1 3.1-4.5 3-6.1-.3-12.2-.7-18.3-.9-3.6-.1-7.1 0-10.7.1-.6 0-1.2.4-1.7.7-4.7 2.9-9.6 5.2-15.1 6.2-3.8.7-7.7 1.2-11.6 1.7-1 .1-2.1.1-2.9.2-1.2 3.8-2.9 7.1-6.6 8.8-5.8 2.8-11.8 5.2-16.9 9.1-1.8 1.4-3.9 1.2-5.5-.3-1.7-1.5-2.1-3.2-1.3-5.2.9-2.6 1.8-5.2 2.6-7.8.3-.9.3-1.8.4-3-2.8-.7-5.4 0-8 0-4.6 0-9.3.3-13.9.3-1.7 0-3.3-.5-5-.9-1.7-.4-2.8-1.3-2.9-3.2-.2-2 .4-3.5 2.1-4.6 5.2-3.5 10.9-6 16.6-8.5 2.4-1 4.8-2.1 7.1-3.3 2.4-1.3 4.6-1.9 7.3-.8.8.3 1.9.2 2.7-.1 4.3-1.6 8.6-3.4 13-5 5.1-1.8 10.3-3 15.7-3.5 2.7-.3 5.4-.9 8.1-1.3 1.2-.2 1.5-.9 1.6-2 .1-8.5 0-17.1.2-25.6.2-6.4.6-12.8 1.2-19.2.2-2.5-.4-4.2-2.4-5.6-5.5-4.1-11.1-8.1-16.3-12.5-8.4-7.3-15.8-15.5-20.5-25.8-2.9-6.4-4.9-13.2-6.9-20-2.6-9.4-4.7-18.8-6.1-28.4-1.4-9.3-2.2-18.6-3.6-27.9-1.5-10-1.7-20-2-30-.1-2.1-1-3.3-2.8-4.5-6.3-3.9-13.6-5.1-20.3-7.7-7.5-2.8-15-5.7-21.3-10.9-6-4.9-11.9-10.1-17.9-15.2-1.2-1-2.5-2-3.7-2.9-1.3-.9-2.6-1-4.2-.8-2.4.4-4.8.6-7.2.5-3.1-.1-6-1.4-9.3-.8-1.2.2-2.6-.7-3.9-1-3.8-.7-7.7-1.2-11.5-2-3.2-.7-6.3-1.7-9.4-2.7-.5-.1-1-.4-1.4-.7-2.1-1.5-2.3-3.3-.3-4.9 1.3-1 2.8-1.9 4.3-2.5 4.5-1.8 8.8-4 12.5-7.1 1.4-1.2 1.6-1.7.4-3.1-1-1.1-2.1-2.1-3.3-2.9-5.5-3.7-10-8.4-13.5-14-.6-1-1.4-1.8-2.1-2.8.7-4.1 3.9-6 8.1-4.8 5.6 1.5 11.2 2.9 16.8 4.4.2 0 .4-.1.9-.1.8-2.5 1.6-5 2.3-7.6 1.1-3.6 2.2-7.3 3.3-10.9.7-2 1.6-3.8 1.4-6.1-.1-1.8 2.5-4.2 4.3-4.4 2.5-.2 4 .8 5 3.4l8.4 22.2c.2.5.5.9.9 1.6 2.8-1.6 5.6-3 8.2-4.8 3.1-2.1 6-4.6 9-6.9 2.1-1.6 4.3-1.4 6.6.8-.9 3.3-1.9 6.7-2.8 10.1-1.4 5.3-2.3 10.8-4.1 15.9-1.1 3-1 5.6-.4 8.5.1.6.1 1.3.1 1.9-.2 2.2.5 3.9 1.8 5.8 3.9 5.5 8.8 10 13.9 14.2 5.6 4.7 12.3 7.4 19.1 9.6 4.4 1.4 9 2.2 13.5 3.3.5.1 1 .1 1.9.1v-2.9c.4-7.8.5-15.6 1.3-23.3.9-8.6 2.3-17.2 3.6-25.7 1.2-7.6 2.2-15.3 3.8-22.8 2.3-10.5 5.3-20.8 9.6-30.7 4.2-9.7 9.5-18.8 15.3-27.6 7.6-11.3 17.2-20.8 28.2-28.8 10-7.2 20.1-14.2 31.2-19.7 7.8-3.9 15.4-7.9 23.7-10.5 9.8-3.1 19.7-5.5 29.8-7 10.8-1.6 21.7-1.7 32.5-1.1 14 .8 27.9 2.9 41.5 6.5 4.5 1.2 9 2.3 13.4 3.8 6.6 2.3 12.7 5.7 18.6 9.4 6.9 4.3 13.7 8.8 20.3 13.5 2.5 1.8 4.6 4.3 6.7 6.7 7.6 8.3 14 17.4 18.7 27.7 5.4 12 10.1 24.4 13.3 37.2 2.3 9.3 4.1 18.8 5.7 28.2 1.5 8.2 2.5 16.5 3.6 24.8 1.1 8.7 1.9 17.4 2.9 26.1 1 9.1 2.1 18.2 3.2 27.3.1.6.5 1.8 1 3.7zm60.7-32.2c2.1-2.2 4.2-4 7-5 3.6-1.4 5.7-4.3 7-8 1.6-4.5 1.4-8.9.4-13.4-.5-2.2-1.7-4.3-4.1-5.3-.6-.2-1.2-.9-1.5-1.5-1-2.2-3-2.9-5.1-3.3-5-.8-10.6 2.4-13.3 7.3-2.6 4.7-2.6 9.7-1.8 14.7.2 1.3.7 2.4 2.2 2.7 1.2.2 1.7 1.1 2 2.2.9 2.9.5 4-2 6-1.8 1.4-3.6 2.9-5.1 4.6-5.6 6.6-11.1 13.3-16.7 19.8-2.3 2.6-4.6 5.3-7.3 7.3-4.3 3.2-9 5.9-13.6 8.6-2.3 1.4-4.9 2.5-7.4 3.5-4.4 1.6-11.5-.9-10.3-7.8.2-.9 0-1.9-.1-2.8-.9-8.6-1.7-17.2-2.7-25.8-.9-8.1-1.7-16.2-2.8-24.2-1.1-8.2-2.2-16.3-3.6-24.4-1.6-9.6-3.1-19.2-5.3-28.6-2.4-10.3-5.8-20.2-9.9-30-4.1-9.9-8.7-19.4-15.7-27.7-5.3-6.3-10.8-12.1-17.7-16.5-4.7-3-9.5-5.9-14.1-9.1-6.7-4.8-14.1-8.1-21.9-10.4-7.6-2.2-15.4-3.8-23.1-5.5-9.5-2-19.2-2.9-28.9-3.3-7.5-.3-15 0-22.4.9-7.6.9-15 2.3-22.3 4.4-11.8 3.5-23.3 8-34.2 14.1-12.7 7.1-24.9 14.8-35.6 24.5-4.6 4.2-9.3 8.3-13.3 13.1-7.3 8.8-13.5 18.5-18.3 28.8-5.4 11.4-9.8 23.1-11.8 35.6-1.7 10.4-3.7 20.8-5.2 31.2-1.3 8.8-2.4 17.6-3.1 26.4-.5 6-.1 12 .1 18 .1 3.4-1 5.1-3.9 4.7-1.9-.2-4-.1-5.7-1.4-.9-.7-2.1-1-3.2-1.3-3.9-1-7.8-1.8-11.7-2.8-6.8-1.7-13.3-4.2-18.9-8.6-4.3-3.4-8.3-7.1-12.4-10.8-2-1.8-3.8-3.8-6.3-5.1-3.5-1.7-4.6-4.7-3.8-8.7.9-4.6.2-8.5-3.3-12.2-5.6-6-13.8-7.8-20.9-3.8-1.7.9-3.3 2.4-4.3 4.1-2.5 4.2-3.5 8.7-2.9 13.7.6 4.9 4.7 8.1 9 8.2 3.4.1 6.8-.4 9.9-1.9 4.7-2.3 6.7-.1 8.5 3.4.8 1.5 1.7 3.1 2.9 4.3 2.7 2.7 5.7 5.1 8.4 7.7 6.1 5.8 12.8 10.7 20.7 13.8 4.8 1.9 9.7 3.4 14.6 5.1 2.7.9 5.4 1.7 8.2 2.5.9.3 1.9.6 2.7.4 2-.4 3.1.5 4.3 1.9 1 1.2 2.2 2.2 3.3 3.2 1.5 1.3 2 2.9 2 4.7.1 5.8-.1 11.6.3 17.4.4 6.4 1.3 12.8 2.1 19.2 1.2 9.5 2.5 19 4 28.5 1.8 10.8 4.5 21.5 7.8 31.9 1.5 4.8 3.4 9.6 5.7 14 4 7.6 9.9 13.9 16.5 19.5 5.4 4.5 11.2 8.5 17 12.6 2.4 1.7 3.8 3.5 3.4 6.7-1.6 11.1-1.3 22.3-1.1 33.5.1 6.4.5 12.9.7 19.3.1 2.3-1.3 4.8-3.1 4.8-2.2 0-4.2.8-6.3 1.1-2.6.4-5.3.5-7.9.8-8.8 1-17.1 3.7-24.9 7.8-.8.4-1.3 1.1-2.4 2.1 1.5 1 2.5 2.1 3.7 2.5 2.4.8 4.9 1.4 7.4 1.7 5.9.6 11.8.7 17.7 0 6.6-.8 12.6-2.7 17.6-7 2.1-1.8 4-3.8 3.7-7-.1-1.5.5-2.5 2.1-3.1 2.5-.8 3.6-2.6 3.4-5.3-.2-2.8-.1-5.7-.2-8.5-.2-6.1-.7-12.2-.7-18.3-.1-7.2.2-14.3.4-21.5 0-.9.4-1.8.9-2.5 1.7-2.2 4.3-2.8 7.3-1.9 1.7.5 3.4 1.1 5.2 1.3 5 .7 10 1.3 15.1 1.9 4.4.5 8.8 1.1 13.2 1.3 8.2.2 16.4.2 24.7.2 5.1 0 10.1 0 15.2-.2 3.8-.1 7.6-.4 11.4-.5 9.8-.2 19.6-.8 29.3-2.5 6-1 12.1-1.8 18.1-2.7 4.2-.6 8.4-1 12.5-1.7 7.2-1.2 14.3-2.5 21.4-4 4.5-1 8.9-2.7 13.4-3.6 3-.6 6.4-2 9.4.7.2 1.2.6 2.6.6 3.9-.2 3.9-1 7.8-.9 11.6.3 13.3.8 26.6 1.4 39.9.2 3.8 1.2 7.5 1.1 11.3 0 2.8 1.1 4.1 3.4 4.8 4.9 1.4 9.7 2.9 14.6 4.3 5 1.4 10.1 1.2 15.1.3 2.7-.5 5.4-1.3 7.7-2.6 3.4-1.9 6.3-4.5 7.6-8.5-.6-.4-1-.7-1.4-.9-3.9-1.8-8-2.5-12.3-2.9-4.4-.4-8.9-.5-13.3-1-2.5-.3-4.7-.2-6.7 1.7-1.7 1.5-3.1 1.5-4.9.1-1.5-1.1-3-2.3-2.4-4.7.5-2.1.8-4.4.8-6.6 0-10.1-.2-20.3-.2-30.4 0-7.7.2-15.4.2-23.1 0-3.4 2.4-7.7 5.4-8.8 7.3-2.9 13.6-7.1 18.9-12.9 5.9-6.5 10.6-13.7 11.7-22.7 1-7.6 2.3-15.2 3.1-22.9.7-6.1 1.1-12.2 1.2-18.3.1-7.6-.1-15.2-.4-22.7-.2-4.1.3-8.2-1.2-12.2-.2-.6 0-1.9.5-2.3 2.4-2.2 4.9-4.3 8.2-5 1.3-.3 2.7-.5 4-.9 6.5-2.3 12.2-6 17.7-10.1 6.5-4.8 12.7-9.8 17.4-16.4 5.2-7.2 11.1-14 14.8-22.3.2-.5.7-1.1 1.1-1.5 2.2-2.2 4.3-1.9 7.5 1.1zM297 450c3.4-.6 6.3-1.2 9.3-1.8 1.5-.3 1.4-1.2 1.1-2.4-.9-3-1.6-6.1-2.6-9.1-.6-1.8-1.7-3.5-2.9-6-2.2 6.8-4.4 12.6-4.9 19.3zm335.4 299.2c.1.3.3.6.4.9 6-1.5 12.3-1.6 18.4-4-3.2-2.4-6.1-4.5-9.2-6.9-3.3 3.5-6.4 6.7-9.6 10zM325.7 456.5c2.1-3.8 3.9-10.7 3.6-13.5-3.6 2.4-7 4.7-10.7 7.1 1.5 1.2 2.7 2.1 3.8 3.1l3.3 3.3zm50 297.7c.1.2.2.4.2.6 6.6.9 13.7-.1 16-2.3-.6-1.5-1.3-3-2-4.7-4.8 2.3-9.5 4.4-14.2 6.4zm-99.6-303c3 4.5 6.9 6.9 10.9 9.8.9-1.6 1.8-2.9 2.5-4.2-3.7-3.4-7.8-5.3-13.4-5.6zm518 25.1c-.3 0-.6 0-.8.1-1.6 3.1-3.2 6.1-4.9 9.4 3.5.3 6.8.8 10.4-.9-1.8-3.2-3.2-5.9-4.7-8.6zM410.1 760c-2.8-.4-5.2-.8-7.6-1-.7-.1-2 .2-2.2.7-1 2.4-2.4 4.6-2.3 7.7 4.5-1.9 8.8-3.4 12.1-7.4zm381.5-306c.8 2.7 1.5 4.6 2.2 6.9 3.8-2.2 6-5.3 8.2-8.5-.1-.2-.2-.4-.3-.7-3.3.8-6.5 1.5-10.1 2.3zm-36.9 0c1.1-1.4 1.8-2.6 2.7-3.6 1.2-1.3.9-2.8.1-3.8-1.6-2-3.5-3.7-6.9-4.1 1.5 4 2.7 7.5 4.1 11.5zm-31.6 279.7c0-.3.1-.6.1-.9-4.6-1-9.2-2-13.9-3.1-.1 3.5.2 4 2.9 4.5 3.7.6 7.3-.1 10.9-.5zm53.7-291.6c2.1.6 3.8 1.1 5.8 1.7.5-3.3 1.2-6.1 1.1-9.5-3.2 2.3-4.9 4.9-6.9 7.8zm-65.2 306.4c.1-.2.3-.4.4-.6-1.1-1.5-2.1-3-3.4-4.4-.6-.6-1.5-1-2.3-1.4-1-.5-2.1-.6-2.7.6-.7 1.3.2 2.1 1.1 2.6 2.2 1.2 4.5 2.2 6.9 3.2zM284.4 477.4c-2.2 1.7-5 1.9-6.9 4.6 3.1.2 5.7 1.3 8.7 1-.6-2.1-1.1-3.7-1.8-5.6zm171.4 265.8c.1.4.2.7.2 1.1 2.9.2 5.8.3 8.7.5 0-.2.1-.4.1-.6-1.4-.9-2.8-1.7-4.1-2.5-1.8.5-3.4 1-4.9 1.5z"/>
    <path class="st0" d="M771.1 487.2c-3.2-3-5.3-3.3-7.8-1.1-.5.4-.9.9-1.1 1.5-3.6 8.3-9.6 15-14.8 22.3-4.7 6.6-11 11.6-17.4 16.4-5.5 4.1-11.2 7.8-17.7 10.1-1.3.5-2.6.6-4 .9-3.3.7-5.8 2.8-8.2 5-.5.5-.8 1.7-.5 2.3 1.5 4 1.1 8.1 1.2 12.2.3 7.6.5 15.2.4 22.7-.1 6.1-.5 12.2-1.2 18.3-.8 7.7-2.1 15.3-3.1 22.9-1.2 9-5.8 16.2-11.7 22.7-5.3 5.8-11.6 10-18.9 12.9-2.9 1.2-5.4 5.4-5.4 8.8 0 7.7-.2 15.4-.2 23.1 0 10.1.2 20.3.2 30.4 0 2.2-.3 4.4-.8 6.6-.6 2.4.9 3.6 2.4 4.7 1.8 1.3 3.2 1.4 4.9-.1 2-1.9 4.2-2 6.7-1.7 4.4.5 8.8.6 13.3 1 4.2.4 8.4 1.1 12.3 2.9.5.2.9.5 1.4.9-1.4 4-4.2 6.7-7.6 8.5-2.3 1.3-5.1 2.1-7.7 2.6-5 .9-10.1 1.1-15.1-.3-4.9-1.4-9.7-2.9-14.6-4.3-2.4-.7-3.5-2-3.4-4.8 0-3.8-1-7.5-1.1-11.3-.6-13.3-1.1-26.6-1.4-39.9-.1-3.9.7-7.7.9-11.6.1-1.3-.4-2.7-.6-3.9-3-2.7-6.4-1.3-9.4-.7-4.5.9-8.9 2.6-13.4 3.6-7.1 1.5-14.3 2.8-21.4 4-4.2.7-8.4 1.1-12.5 1.7-6 .9-12.1 1.7-18.1 2.7-9.7 1.7-19.5 2.3-29.3 2.5-3.8.1-7.6.4-11.4.5-5.1.1-10.1.2-15.2.2-8.2 0-16.4 0-24.7-.2-4.4-.1-8.8-.8-13.2-1.3-5-.6-10.1-1.2-15.1-1.9-1.8-.2-3.5-.8-5.2-1.3-3-.9-5.6-.3-7.3 1.9-.5.7-.9 1.7-.9 2.5-.2 7.2-.4 14.3-.4 21.5.1 6.1.5 12.2.7 18.3.1 2.8 0 5.7.2 8.5.2 2.7-.9 4.5-3.4 5.3-1.6.5-2.2 1.5-2.1 3.1.3 3.1-1.7 5.2-3.7 7-5 4.3-11.1 6.2-17.6 7-5.9.7-11.8.6-17.7 0-2.5-.2-5-.9-7.4-1.7-1.2-.4-2.2-1.5-3.7-2.5 1-.9 1.6-1.7 2.4-2.1 7.8-4.1 16.1-6.8 24.9-7.8 2.6-.3 5.3-.4 7.9-.8 2.1-.3 4.1-1.1 6.3-1.1 1.9 0 3.2-2.5 3.1-4.8-.3-6.4-.7-12.9-.7-19.3-.1-11.2-.4-22.4 1.1-33.5.5-3.2-1-5-3.4-6.7-5.7-4.1-11.6-8.1-17-12.6-6.6-5.5-12.4-11.8-16.5-19.5-2.3-4.5-4.2-9.2-5.7-14-3.3-10.5-6-21.1-7.8-31.9-1.6-9.5-2.8-19-4-28.5-.8-6.4-1.7-12.8-2.1-19.2-.4-5.8-.2-11.6-.3-17.4 0-1.9-.5-3.5-2-4.7-1.2-1-2.3-2-3.3-3.2-1.2-1.3-2.3-2.3-4.3-1.9-.8.2-1.8-.1-2.7-.4-2.7-.8-5.5-1.6-8.2-2.5-4.9-1.6-9.8-3.2-14.6-5.1-7.9-3.1-14.6-8-20.7-13.8-2.8-2.6-5.7-5-8.4-7.7-1.2-1.2-2.1-2.8-2.9-4.3-1.8-3.4-3.8-5.7-8.5-3.4-3.1 1.5-6.4 2-9.9 1.9-4.3-.1-8.4-3.3-9-8.2-.6-4.9.4-9.5 2.9-13.7 1-1.6 2.6-3.1 4.3-4.1 7.1-4 15.3-2.1 20.9 3.8 3.5 3.7 4.2 7.6 3.3 12.2-.8 4 .3 6.9 3.8 8.7 2.6 1.3 4.3 3.3 6.3 5.1 4.1 3.6 8.1 7.4 12.4 10.8 5.5 4.4 12.1 6.9 18.9 8.6 3.9 1 7.8 1.8 11.7 2.8 1.1.3 2.3.6 3.2 1.3 1.8 1.3 3.8 1.2 5.7 1.4 2.9.3 4-1.4 3.9-4.7-.2-6-.6-12-.1-18 .7-8.8 1.8-17.6 3.1-26.4 1.6-10.4 3.6-20.8 5.2-31.2 2-12.5 6.4-24.3 11.8-35.6 4.9-10.3 11-20 18.3-28.8 4-4.8 8.7-8.9 13.3-13.1 10.8-9.7 23-17.5 35.6-24.5 10.9-6 22.3-10.5 34.2-14.1 7.3-2.2 14.7-3.5 22.3-4.4 7.5-.9 14.9-1.2 22.4-.9 9.7.4 19.4 1.2 28.9 3.3 7.7 1.7 15.5 3.3 23.1 5.5 7.8 2.3 15.2 5.6 21.9 10.4 4.6 3.2 9.4 6.1 14.1 9.1 7 4.4 12.5 10.3 17.7 16.5 6.9 8.3 11.6 17.8 15.7 27.7 4 9.8 7.5 19.7 9.9 30 2.2 9.4 3.7 19 5.3 28.6 1.4 8.1 2.5 16.3 3.6 24.4 1 8.1 1.9 16.1 2.8 24.2l2.7 25.8c.1.9.2 1.9.1 2.8-1.2 6.9 5.9 9.4 10.3 7.8 2.6-.9 5.1-2.1 7.4-3.5 4.6-2.7 9.3-5.4 13.6-8.6 2.8-2 5.1-4.7 7.3-7.3 5.6-6.6 11.1-13.3 16.7-19.8 1.5-1.7 3.3-3.2 5.1-4.6 2.5-2 2.9-3.1 2-6-.3-1.1-.8-2-2-2.2-1.6-.2-2.1-1.4-2.2-2.7-.8-5.1-.8-10 1.8-14.7 2.7-4.9 8.3-8.2 13.3-7.3 2.1.4 4.1 1 5.1 3.3.3.6.9 1.2 1.5 1.5 2.4 1 3.6 3 4.1 5.3 1 4.4 1.3 8.9-.4 13.4-1.3 3.7-3.4 6.7-7 8-2.5 1-4.6 2.8-6.7 5zM580.8 629.9c7.5-.6 14.9-1.2 22.4-1.7 4-.3 7.5-2.2 11.3-3 5-1 7.7-4.3 8.8-8.8 1.7-7.1 3.1-14.2 4.2-21.4.9-5.5 1.3-11.1 1.8-16.7.6-5.7 1.1-11.3 1.5-17 .2-3 0-6.1.1-9.1.1-5.6.3-11.2.6-16.7.2-4.1.1-8.3.8-12.3 1.4-9.1 2.5-18.2 3-27.3.2-2.7-.3-3.7-3-4.5-4-1.3-8-2.7-12.1-3.5-5.7-1.1-11.4-1.9-17.2-2.5-3.7-.4-7.5-.7-11.3-.6-6.6.1-13.3.6-19.9.9-6.1.3-12.2.7-18.3 1-2.9.1-6-.2-8.8.2-6.8 1.1-13.6 2-20.5 1.6-11.3-.7-22.3 1.1-33.2 3.6-5.2 1.2-10.1 3.6-15.2 5.1-3.7 1.1-5.6 3.6-6.9 7.1-2.4 6.6-4.2 13.3-3.6 20.4.3 4.4.8 8.8 1.3 13.2.7 6.4 1.5 12.8 2.2 19.2 1 8.9 3.1 17.7 5.6 26.3 2.6 9 5 18.1 10 26.2 2.8 4.4 6.3 7.9 11.5 9.3 4.2 1.1 8.4 2.1 12.6 2.9 6.1 1.2 12.2 2.3 18.4 3.2 6.8.9 13.6 1.4 20.4 2.2 11.2 1.3 22.3 2.4 33.5 2.7zm27.7-209.8c-.3 7.4 6.1 14.6 13.5 15.5 7.1.9 13.1-1.2 18.1-6.2 3.5-3.6 5.4-7.9 4.5-12.9-.9-4.8-2.5-9.4-5.8-13.2-2.1-2.4-4.7-3.9-8.1-3.3-1.4.3-2.9.4-4.4.5-10.5.7-17.9 10.6-17.8 19.6zm-151.6-8.9c.1 9.5 5 16.8 13.8 19.6 3.1 1 6.8 1.1 9.6-.4 6.9-3.6 9.6-9.2 8.7-17.7-.1-.7-.4-1.5-.2-2.1 1.5-4-.4-6.8-3-9.6-2.9-3.3-7.5-3.1-10.8-5.5-.7-.5-2 .2-3 0-2.7-.6-4.7.5-6.6 2.3-.4.4-.8.6-1.3 1-4.7 3.3-6.6 8.2-7.2 12.4z"/>
    <path class="st0" d="M304.8 436.7c-.6-1.8-1.7-3.5-2.9-6-2.2 6.7-4.4 12.6-4.9 19.2 3.4-.6 6.3-1.2 9.3-1.8 1.5-.3 1.4-1.2 1.1-2.4-.8-2.9-1.6-6-2.6-9z"/>
    <path class="st0" d="M632.4 749.2c.1.3.3.6.4.9 6-1.5 12.3-1.6 18.4-4-3.2-2.4-6.1-4.5-9.2-6.9-3.3 3.5-6.4 6.7-9.6 10z"/>
    <path class="st0" d="M318.6 450.1c1.5 1.2 2.7 2.1 3.8 3.1 1.1 1 2.1 2 3.3 3.3 2.1-3.8 3.9-10.7 3.6-13.5-3.6 2.4-7 4.7-10.7 7.1z"/>
    <path class="st0" d="M375.7 754.2c.1.2.2.4.2.6 6.6.9 13.7-.1 16-2.3-.6-1.5-1.3-3-2-4.7-4.8 2.3-9.5 4.4-14.2 6.4z"/>
    <path class="st0" d="M287.1 461c.9-1.6 1.8-2.9 2.5-4.2-3.9-3.4-7.9-5.3-13.5-5.6 3 4.6 6.9 7 11 9.8z"/>
    <path class="st0" d="M793.2 476.3c-1.6 3.1-3.2 6.1-4.9 9.4 3.5.3 6.8.8 10.4-.9-1.6-3-3.1-5.7-4.6-8.5h-.9z"/>
    <path class="st0" d="M400.3 759.6c-1 2.4-2.4 4.6-2.3 7.7 4.5-1.8 8.7-3.4 12-7.4-2.8-.4-5.2-.8-7.6-1-.6 0-1.9.3-2.1.7z"/>
    <path class="st0" d="M802 452.4c-.1-.2-.2-.4-.3-.7-3.2.7-6.4 1.5-10 2.3.8 2.7 1.5 4.6 2.2 6.9 3.7-2.2 5.9-5.3 8.1-8.5z"/>
    <path class="st0" d="M750.7 442.6c1.4 3.9 2.6 7.5 4 11.4 1.1-1.4 1.8-2.6 2.7-3.6 1.2-1.3.9-2.8.1-3.8-1.5-1.9-3.4-3.7-6.8-4z"/>
    <path class="st0" d="M712.2 734.2c3.7.7 7.3-.1 10.9-.5 0-.3.1-.6.1-.9-4.6-1-9.2-2-13.9-3.1-.1 3.5.2 4 2.9 4.5z"/>
    <path class="st0" d="M776.8 442.1c2.1.6 3.8 1.1 5.8 1.7.5-3.3 1.2-6.1 1.1-9.5-3.2 2.3-4.9 4.9-6.9 7.8z"/>
    <path class="st0" d="M706.3 742.2c-1-.5-2.1-.6-2.7.6-.7 1.3.2 2.1 1.1 2.6 2.3 1.2 4.6 2.2 7 3.2.1-.2.3-.4.4-.6-1.1-1.5-2.1-3-3.4-4.4-.7-.7-1.6-1-2.4-1.4z"/>
    <path class="st0" d="M277.6 481.9c3.1.2 5.7 1.3 8.7 1-.7-2.1-1.2-3.7-1.8-5.6-2.3 1.7-5 2-6.9 4.6z"/>
    <path class="st0" d="M455.8 743.2c.1.4.2.7.2 1.1 2.9.2 5.8.3 8.7.5 0-.2.1-.4.1-.6-1.4-.9-2.8-1.7-4.1-2.5-1.8.5-3.4 1-4.9 1.5z"/>
    <path d="M644.5 416.4c-.9-4.8-2.5-9.4-5.8-13.2-2.1-2.4-4.7-3.9-8.1-3.3-1.4.3-2.9.4-4.4.5-10.5.7-17.9 10.7-17.9 19.6-.3 7.4 6.1 14.6 13.5 15.5 7.1.9 13.1-1.2 18.1-6.2 3.7-3.6 5.5-7.9 4.6-12.9zm-28.1 2.7c-.1-5.3 2.9-8 6.3-10.4.5-.3 1.2-.3 1.8-.4 1.3-.1 2.8.2 3.9-.3 3.4-1.6 5.2-.1 6.6 3.2.2.4.2.8.4 1.6-5.9 2.8-12.2 4.6-19 6.3z"/>
    <path d="M485.9 401c-2.9-3.3-7.5-3.1-10.8-5.5-.7-.5-2 .2-3 0-2.7-.6-4.7.5-6.6 2.3-.4.4-.8.6-1.3 1-4.8 3.4-6.8 8.4-7.3 12.6.1 9.5 5 16.8 13.8 19.6 3.1 1 6.8 1.1 9.6-.4 6.9-3.6 9.6-9.2 8.7-17.7-.1-.7-.4-1.5-.2-2.1 1.6-4.2-.4-7-2.9-9.8zm-20.8 15.9c-1.7-3.6-1.3-6.7.7-9.9.6.4 1.2 1.1 1.8 1.2.8 0 1.6-.5 2.4-.7 1.9-.6 3.8-1.2 5.7-1.6.9-.2 1.9.2 2.9.4.1.4.1.7.2 1.1-4.5 3-9 6.2-13.7 9.5z"/>
    <path d="M632.3 491.2c-4-1.3-8-2.7-12.1-3.5-5.7-1.1-11.4-1.9-17.2-2.5-3.7-.4-7.5-.7-11.3-.6-6.6.1-13.3.6-19.9.9-6.1.3-12.2.7-18.3 1-2.9.1-6-.2-8.8.2-6.8 1.1-13.6 2-20.5 1.6-11.3-.7-22.3 1.1-33.2 3.6-5.2 1.2-10.1 3.6-15.2 5.1-3.7 1.1-5.6 3.6-6.9 7.1-2.4 6.6-4.2 13.3-3.6 20.4.3 4.4.8 8.8 1.3 13.2.7 6.4 1.5 12.8 2.2 19.2 1 8.9 3.1 17.7 5.6 26.3 2.6 9 5 18.1 10 26.2 2.8 4.4 6.3 7.9 11.5 9.3 4.2 1.1 8.4 2.1 12.6 2.9 6.1 1.2 12.2 2.3 18.4 3.2 6.8.9 13.6 1.4 20.4 2.2 11.1 1.4 22.2 2.6 33.4 2.9 7.5-.6 14.9-1.2 22.4-1.7 4-.3 7.5-2.2 11.3-3 5-1 7.7-4.3 8.8-8.8 1.7-7.1 3.1-14.2 4.2-21.4.9-5.5 1.3-11.1 1.8-16.7.6-5.7 1.1-11.3 1.5-17 .2-3 0-6.1.1-9.1.1-5.6.3-11.2.6-16.7.2-4.1.1-8.3.8-12.3 1.4-9.1 2.5-18.2 3-27.3.3-2.8-.2-3.8-2.9-4.7zm-8.2 4c.8 3.8-.7 6.7-1.7 9.7-2.6 7.3-5.2 14.7-8.1 21.9-2.4 6-5.3 11.9-8 17.8-.3.7-.9 1.3-1.7 2.6-.5-2.2-.9-3.8-1.3-5.3-1.3-5.8-2.6-11.7-4-17.5-1.6-6.3-3.3-12.6-5-18.9-.5-1.9-1.5-3.7-2-5.7-.6-2.7-.8-5.5-1.2-9 11.4 0 22.4 1.4 33 4.4zm-77.7-2.6c7.2-.4 14.3-.5 21.5-.8 4.1-.2 8.2-.4 12.2-.5 1.5 4.8.4 9-1.8 13-3.8 6.7-6.3 14-9 21.2-1.9 4.9-3.3 10-5.1 15-1.1 3.2-2.5 6.3-3.7 9.4-.1.3-.5.6-1.1 1.2-1.7-3.2-3.2-6.1-4.7-9.1-4.3-8.6-7.1-17.8-10.2-26.9-2-5.7-4.5-11.2-6.7-16.7-.5-1.2-.9-2.5-1.7-4.4 3.8-.6 7-1.2 10.3-1.4zm-53.5 5c4.8-.8 9.6-1.2 14.4-1.8 3.3-.4 6.7-.9 10-1.2 2.4-.2 4.8 0 7.7 0-.3 1.5-.3 2.8-.8 4-1.8 4.8-3.7 9.6-5.7 14.4-3.1 7.4-5 15.2-7.1 22.9-1.7 6.2-4.9 11.6-9.6 16.8-1.1-2.6-1.8-4.6-2.8-6.6-2.8-6-5.7-12-8.3-18.1-3.3-7.9-6.3-15.9-9.4-23.8-.3-.8-.3-1.6-.5-2.7 4-2 8-3.2 12.1-3.9z"/>
    <path class="st0" d="M567.9 491.8c-7.2.3-14.4.4-21.5.8-3.2.2-6.4.8-10.3 1.3.7 1.9 1.2 3.2 1.7 4.4 2.2 5.6 4.7 11.1 6.7 16.7 3.2 9.1 6 18.2 10.2 26.9 1.5 3 3 5.9 4.7 9.1.6-.6.9-.9 1.1-1.2 1.3-3.1 2.6-6.2 3.7-9.4 1.8-5 3.2-10 5.1-15 2.7-7.2 5.2-14.5 9-21.2 2.2-4 3.3-8.1 1.8-13-4 .3-8.1.5-12.2.6z"/>
    <path class="st0" d="M517.4 494.6c-3.4.3-6.7.8-10 1.2-4.8.6-9.7 1-14.4 1.8-4.1.7-8.1 1.9-12 3.9.2 1 .2 1.9.5 2.7 3.1 8 6.1 15.9 9.4 23.8 2.6 6.1 5.6 12 8.3 18.1.9 2 1.7 4 2.8 6.6 4.7-5.2 7.9-10.6 9.6-16.8 2.2-7.7 4.1-15.5 7.1-22.9 2-4.8 3.9-9.6 5.7-14.4.4-1.2.5-2.5.8-4-3-.1-5.4-.2-7.8 0z"/>
    <path class="st0" d="M624.1 495.2c-10.6-3.1-21.5-4.4-33.1-4.3.5 3.5.7 6.3 1.2 9 .4 1.9 1.4 3.7 2 5.7 1.7 6.3 3.5 12.6 5 18.9 1.4 5.8 2.7 11.7 4 17.5.4 1.6.8 3.1 1.3 5.3.9-1.3 1.4-1.9 1.7-2.6 2.7-5.9 5.6-11.8 8-17.8 2.9-7.2 5.5-14.6 8.1-21.9 1.1-3 2.6-6 1.8-9.8z"/>
    <path class="st0" d="M635.1 411.2c-1.3-3.3-3.2-4.8-6.6-3.2-1.1.5-2.6.2-3.9.3-.6.1-1.3.1-1.8.4-3.4 2.4-6.4 5.1-6.3 10.4 6.8-1.7 13.1-3.4 19-6.3-.2-.8-.3-1.3-.4-1.6z"/>
    <path class="st0" d="M475.7 405.8c-1.9.4-3.8 1-5.7 1.6-.8.2-1.6.8-2.4.7-.6 0-1.2-.7-1.8-1.2-2 3.2-2.4 6.3-.7 9.9 4.7-3.3 9.2-6.5 13.7-9.6-.1-.4-.1-.7-.2-1.1-1-.1-2-.5-2.9-.3z"/>
</svg>
