<svg id="Layer_1" xmlns="http://www.w3.org/2000/svg" viewBox="0 0 103.6 191.8">
    <style>
        .st0{fill:#fff}.st1{fill:none;stroke:#231f20;stroke-width:5;stroke-miterlimit:10}
    </style>
    <path class="st0" d="M45.3 84.1h8.6v62h-8.6z"/>
    <path class="st0" d="M67.1 37.1H31.6c-5.5 0-10 4.5-10 10v27c0 5.5 4.5 10 10 10h35.5c5.5 0 10-4.5 10-10v-27c0-5.5-4.5-10-10-10z"/>
    <title>
        TheBigCity
    </title>
    <path class="st0" d="M67.1 37.1H31.6c-5.5 0-10 4.5-10 10v27c0 5.5 4.5 10 10 10h35.5c5.5 0 10-4.5 10-10v-27c0-5.5-4.5-10-10-10z"/>
    <path class="st1" d="M67.1 37.1H31.6c-5.5 0-10 4.5-10 10v27c0 5.5 4.5 10 10 10h35.5c5.5 0 10-4.5 10-10v-27c0-5.5-4.5-10-10-10z"/>
    <path class="st1" d="M45.3 84.1h8.6v62h-8.6z"/>
</svg>
