<svg xmlns="http://www.w3.org/2000/svg" viewBox="0 0 103.63 191.77">
    <defs>
        <style>
            .cls-1{fill:#fff}.cls-2{fill:none;stroke:#231f20;stroke-miterlimit:10;stroke-width:5px}
        </style>
    </defs>
    <title>
        TheBigCity
    </title>
    <g id="Fills">
        <path class="cls-1" d="M47.51 88.68v57.4h8.62v-57.4a10.07 10.07 0 0 1-8.62 0z"/>
        <path class="cls-1" d="M78 53.51L58.89 34.42a10 10 0 0 0-14.14 0l-19.1 19.09a10 10 0 0 0 0 14.14l19.09 19.09a9.89 9.89 0 0 0 2.76 1.94 10.07 10.07 0 0 0 8.62 0 9.89 9.89 0 0 0 2.76-1.94L78 67.65a10 10 0 0 0 0-14.14z"/>
    </g>
    <g id="Outlines">
        <path class="cls-2" d="M47.51 88.68v57.4h8.62v-57.4a10.07 10.07 0 0 1-8.62 0z"/>
        <path class="cls-2" d="M78 53.51L58.89 34.42a10 10 0 0 0-14.14 0l-19.1 19.09a10 10 0 0 0 0 14.14l19.09 19.09a9.89 9.89 0 0 0 2.76 1.94 10.07 10.07 0 0 0 8.62 0 9.89 9.89 0 0 0 2.76-1.94L78 67.65a10 10 0 0 0 0-14.14z"/>
    </g>
</svg>
