<svg xmlns="http://www.w3.org/2000/svg" viewBox="0 0 186.14 350.04">
    <defs>
        <style>
            .cls-1{fill:#fff}.cls-2{fill:none;stroke:#231f20;stroke-miterlimit:10;stroke-width:5px}
        </style>
    </defs>
    <title>
        TheBigCity
    </title>
    <g id="Fills">
        <path class="cls-1" d="M47 312.66H32.68c0-71.52 6.9-138.8 19.42-189.45 6.19-25 13.47-44.8 21.63-58.76 9.47-16.19 20.15-24.4 31.75-24.4v14.36c-10.43 0-26.27 19-39.44 72.24C53.79 176.21 47 242.27 47 312.66z"/>
        <path class="cls-1" d="M111.62 58.41c0 9.77 10.31 17.69 23 17.69s23-7.92 23-17.69v-.58h-46c.02.17 0 .39 0 .58z"/>
        <path class="cls-1" d="M163.45 35.22h-57.96v22.61h57.96V35.22z"/>
    </g>
    <g id="Outlines">
        <path class="cls-2" d="M111.62 58.41c0 9.77 10.31 17.69 23 17.69s23-7.92 23-17.69v-.58h-46c.02.17 0 .39 0 .58z"/>
        <path class="cls-2" d="M163.45 35.22h-57.96v22.61h57.96V35.22z"/>
        <path class="cls-2" d="M47 312.66H32.68c0-71.52 6.9-138.8 19.42-189.45 6.19-25 13.47-44.8 21.63-58.76 9.47-16.19 20.15-24.4 31.75-24.4v14.36c-10.43 0-26.27 19-39.44 72.24C53.79 176.21 47 242.27 47 312.66z"/>
    </g>
</svg>
