<svg id="Layer_1" xmlns="http://www.w3.org/2000/svg" viewBox="0 0 1000 1000">
    <style>
        .st0{fill:#fff}
    </style>
    <path d="M546.8 470.7c-5.6-2.3-11.1-3.6-16.9-3.7-17.7-.2-33.7 5.5-49.4 12.9-9 4.3-17.8 9.1-25.9 14.9-8.1 5.8-15.8 12.1-23.8 18.1-10.5 8-20.9 16.2-31.7 23.7-9.8 6.9-19.9 13.5-30.2 19.5-13.2 7.7-27.2 13.7-42.5 15.8-10.3 1.4-19.4-1.6-27.8-7.4-7.5-5.1-12.6-12.1-16.4-20.1-2.5-5.3-3.3-11.2-3.7-17.1-.4-7 .6-14 2.4-20.6 2.2-7.9 5.7-15.3 10.8-21.8 4.2-5.3 9.8-9.1 15.4-12.7 4-2.5 7.8-5.3 12.5-8.5-3.8-1.2-6.9-2.5-10.1-3.1-9.4-1.7-18.8-1.9-28.3-.9-15.6 1.7-30.1 6.8-44.4 13-17 7.3-33.1 16.6-47.6 28.1-9.2 7.3-17.8 15.4-26.9 22.8-7.7 6.3-15.6 12.4-23.5 18.4-5 3.9-10.4 7.4-15.4 11.3-6.4 5-13.5 8.2-21.6 8.8-.9.1-1.9-.1-2.8-.2-11.2-1.6-19.8-7.5-26.7-16.1-3.1-3.9-6.1-7.7-6.8-12.9-.3-2 .5-3.4 2.3-3.8 1.7-.4 3.2.2 3.6 2.1 1.1 4.8 4.2 8.3 7.2 11.9 4.1 4.8 9.2 8.3 15.2 10.7 6.7 2.7 13.1 1.6 19-1.6 6.7-3.7 13-8 18.9-12.9 4.6-3.8 9.8-6.9 14.6-10.5 4-3 7.9-6.1 11.8-9.3 3.4-2.8 6.7-5.7 10.1-8.6 3.2-2.7 6.3-5.5 9.5-8.2 2.5-2.1 5-4.1 7.5-6.1 3.6-2.7 7.1-5.6 11-7.9 4.5-2.6 8.1-6.6 12.9-8.6 1.2-.5 2.4-1 3.6-1.4.7-.3 1.5-.3 1.9-.8 3.2-3.7 8-4.8 12-7 9-5.1 18.9-8.1 28.4-12.1.4-.2.9-.3 1.4-.4 2.4-.5 4.9-.9 7.3-1.6 4.1-1.2 8.3-2 12.5-2.7 7-1.3 13.9-2.3 21-2 8.3.3 16.5 1.3 24.2 4.6 2.7 1.2 5.2 3 7.8 4.5 3.7 2 2.4 6.5-.6 8.1-.6.3-1.3.8-2 .8-3.9.1-7.1 2.1-10.2 4.1-6.5 4.1-13.2 8-18 14.2-9.1 11.9-13.7 25.4-12.6 40.3 1.1 14.8 8.9 25.5 21.7 32.8 6.9 3.9 14.3 4.4 22 3 8-1.5 15.7-3.8 22.9-7.4 7.6-3.8 15.3-7.3 22.3-12.2 4.3-3 9.1-5.2 13.5-8 3.1-2 6-4.4 8.9-6.6 3.4-2.6 6.8-5.2 10.3-7.7 4.1-3 8.3-5.7 12.3-8.8 5-3.9 9.8-8 14.7-11.9 1.3-1.1 2.6-2 4-3 4.7-3.4 9.5-6.7 14.6-9.7.6-.3 1.1-.9 1.6-1.4 2.6-2.1 5.2-4.1 8.4-5.3 2-.8 3.8-2.3 5.7-3.5.6-.4 1-1 1.7-1.3 8.3-3.4 16.5-6.7 24.8-10 2.9-1.2 5.7-2.5 8.6-3.4 4.3-1.3 8.7-2.9 13.2-3.3 11.4-1.1 22.9-2 33.9 2.9 3.1 1.4 6.2 2.5 9.2 4 .7.3 1.4 1.4 1.5 2.1.4 5.3-2.9 8.1-8.2 7.4-.9-.1-2.1.5-2.7 1.1-1.5 1.5-2.9 3.2-4.1 5-6.2 9.3-11 19.2-11.9 30.5-.8 11.3 2.7 21 11.3 28.7 4.8 4.3 10.3 7 16.6 8 8.5 1.3 16.5-.9 23.9-4.9 5.4-2.9 10.7-5.9 15.8-9.3 4.6-3.1 9.7-5.6 13.3-10.1.1-.2.4-.3.5-.5 6.7-5.3 13.2-10.7 20-15.8 6.1-4.5 12-9.1 17.5-14.2 2.2-2 4.8-3.5 7.3-5.2 3.3-2.2 6.6-4.4 9.8-6.7 1.1-.8 2.2-1.8 3.2-2.7.4-.4.8-1 1.3-1.1 3.8-1.1 6.4-4.1 9.8-5.9 3.8-2.2 7.7-4.4 11.6-6.4 4.5-2.3 9-4.8 13.7-6.6 7.2-2.8 14.2-6.3 22.1-7.3 2.7-.3 5.4-1 8.1-1.5 11.9-2 23.2-.3 33.8 5.5 2.8 1.5 5.1 3.5 6.9 6.2 1.4 2.1 1.6 4.1.5 5.7-1.2 1.7-4.3 2.9-6.1 1.9-2.9-1.7-5.2-.6-7.7.8-12.2 6.7-22.3 15.6-29.2 27.6-9 15.6-8.9 31.7 0 47.3 6.4 11.1 16.8 14.6 29.4 12.5 6.5-1.1 12.4-3.8 18.1-6.8 8.6-4.5 17.1-9.2 25.6-13.9 10.4-5.7 20.7-11.5 31.3-16.9 4.3-2.2 9.1-3.6 13.7-5.4 2.3-.9 4.6-2.2 7-2.8 9.2-2.6 18.5-5.2 27.8-7.5 6-1.5 12.1-1.4 18.2-1.5 4.3-.1 4.5.2 7.5 3.6-.4 1.2-.5 2.7-1.2 3.8-1.7 2.7-4.4 3.5-7.6 1.7-3-1.6-5.9-1.3-9.1-1-10.1 1-19.8 3.7-29.4 6.7-11.8 3.7-23.2 8.4-34.1 14.3-10.3 5.6-20.4 11.7-30.7 17.3-9.9 5.4-19.8 10.8-30.7 14.2-9.3 2.9-18.7 3.1-27.8-.9-6.2-2.8-11.2-7.2-14.6-13.3-2.6-4.7-4.7-9.5-6.2-14.5-1.8-6-2-12.2-.9-18.5.3-1.9.1-3.9.5-5.7 2-8.7 5.9-16.4 11.8-23.2 3.8-4.4 7.5-9 12-12.9 5-4.3 10.4-8 16.1-11.4.5-.3.9-.8 1.5-1.3-3.6-2.5-7.6-3.3-11.6-3.9-10.4-1.6-20.5-.2-30.5 3.1-15.2 4.9-29.1 12.3-42.5 20.9-13.3 8.6-25.7 18.5-38 28.5-12 9.7-24.2 19.3-36.6 28.6-7.2 5.4-15 9.9-23.3 13.5-19.6 8.6-38.7 2.6-50.5-14-4.6-6.6-6.2-13.9-6.3-21.7 0-2.5-.5-5.1 0-7.5.8-4.1 2.2-8 3.4-12 .1-.3.5-.6.6-.9 2.7-9.9 9.6-17.5 15-25.9-.1-1.3-.1-1.5.2-2.1z"/>
</svg>
